# MagicaVoxel @ Ephtracy

# material
mtllib block_nar_2.mtl
usemtl palette

# normals
vn -1 0 0
vn 1 0 0
vn 0 0 1
vn 0 0 -1
vn 0 -1 0
vn 0 1 0

# texcoords
vt 0.939453 0.5
vt 0.943359 0.5
vt 0.970703 0.5
vt 0.974609 0.5
vt 0.978516 0.5
vt 0.982422 0.5
vt 0.986328 0.5
vt 0.990234 0.5
vt 0.994141 0.5

# verts
v -20 0 10
v -20 0 -10
v -20 10 10
v -20 10 -10
v -20 14 10
v -20 14 -10
v -20 17 10
v -20 17 -10
v -20 27 10
v -20 27 -10
v -20 37 10
v -20 37 -10
v -20 39 3
v -20 39 2
v -20 40 10
v -20 40 3
v -20 40 2
v -20 40 -10
v 20 0 10
v 20 0 -10
v 20 10 10
v 20 10 -10
v 20 14 10
v 20 14 -10
v 20 17 10
v 20 17 -10
v 20 27 10
v 20 27 -10
v 20 37 10
v 20 37 -10
v 20 39 7
v 20 39 2
v 20 40 10
v 20 40 7
v 20 40 2
v 20 40 -10
v -20 0 10
v -20 10 10
v -20 14 10
v -20 17 10
v -20 27 10
v -20 37 10
v -20 40 10
v 20 0 10
v 20 10 10
v 20 14 10
v 20 17 10
v 20 27 10
v 20 37 10
v 20 40 10
v -20 0 -10
v -20 10 -10
v -20 14 -10
v -20 17 -10
v -20 27 -10
v -20 37 -10
v -20 40 -10
v 20 0 -10
v 20 10 -10
v 20 14 -10
v 20 17 -10
v 20 27 -10
v 20 37 -10
v 20 40 -10
v -20 0 10
v 20 0 10
v -20 0 -10
v 20 0 -10
v -20 40 10
v 20 40 10
v -17 40 8
v -16 40 8
v -8 40 8
v -7 40 8
v -6 40 8
v 4 40 8
v 5 40 8
v -18 40 7
v -17 40 7
v -13 40 7
v -12 40 7
v -8 40 7
v -7 40 7
v -6 40 7
v 4 40 7
v 5 40 7
v 17 40 7
v 18 40 7
v 20 40 7
v -13 40 6
v -12 40 6
v -8 40 6
v -7 40 6
v 5 40 6
v 6 40 6
v 17 40 6
v 18 40 6
v 19 40 6
v -19 40 5
v -18 40 5
v -17 40 5
v -16 40 5
v -8 40 5
v -7 40 5
v -3 40 5
v -2 40 5
v 5 40 5
v 6 40 5
v 7 40 5
v 10 40 5
v 11 40 5
v 14 40 5
v 16 40 5
v -18 40 4
v -17 40 4
v -16 40 4
v -15 40 4
v -9 40 4
v -8 40 4
v -3 40 4
v -2 40 4
v 7 40 4
v 8 40 4
v 11 40 4
v 12 40 4
v 16 40 4
v 17 40 4
v 18 40 4
v 19 40 4
v -20 40 3
v -19 40 3
v -16 40 3
v -15 40 3
v -14 40 3
v -13 40 3
v -7 40 3
v -6 40 3
v 4 40 3
v 6 40 3
v 9 40 3
v 10 40 3
v 13 40 3
v 14 40 3
v 16 40 3
v 17 40 3
v -20 40 2
v -18 40 2
v -14 40 2
v -13 40 2
v -8 40 2
v -7 40 2
v -6 40 2
v -5 40 2
v 4 40 2
v 8 40 2
v 9 40 2
v 12 40 2
v 13 40 2
v 14 40 2
v 16 40 2
v 17 40 2
v 18 40 2
v 19 40 2
v 20 40 2
v -16 40 1
v -15 40 1
v -9 40 1
v -8 40 1
v -5 40 1
v -4 40 1
v 6 40 1
v 8 40 1
v 12 40 1
v 13 40 1
v 14 40 1
v 15 40 1
v -15 40 -0
v -13 40 -0
v -8 40 -0
v -5 40 -0
v 4 40 -0
v 6 40 -0
v 15 40 -0
v 16 40 -0
v 18 40 -0
v 19 40 -0
v -13 40 -1
v -12 40 -1
v -5 40 -1
v -4 40 -1
v 8 40 -1
v 11 40 -1
v 17 40 -1
v 18 40 -1
v -12 40 -2
v -11 40 -2
v 4 40 -2
v 5 40 -2
v 8 40 -2
v 10 40 -2
v 11 40 -2
v 13 40 -2
v -12 40 -3
v -11 40 -3
v 3 40 -3
v 4 40 -3
v 5 40 -3
v 8 40 -3
v 10 40 -3
v 11 40 -3
v 15 40 -3
v 16 40 -3
v -17 40 -4
v -16 40 -4
v -14 40 -4
v 3 40 -4
v 4 40 -4
v 9 40 -4
v 10 40 -4
v 12 40 -4
v 13 40 -4
v -17 40 -5
v -16 40 -5
v -15 40 -5
v -14 40 -5
v -12 40 -5
v -11 40 -5
v 3 40 -5
v 4 40 -5
v 8 40 -5
v 9 40 -5
v 11 40 -5
v 12 40 -5
v 15 40 -5
v -15 40 -6
v -14 40 -6
v 0 40 -6
v 1 40 -6
v 3 40 -6
v 4 40 -6
v 5 40 -6
v 6 40 -6
v 9 40 -6
v 11 40 -6
v 12 40 -6
v -12 40 -7
v -11 40 -7
v 0 40 -7
v 1 40 -7
v 5 40 -7
v 6 40 -7
v 8 40 -7
v 9 40 -7
v 10 40 -7
v 11 40 -7
v 13 40 -7
v 2 40 -8
v 3 40 -8
v 8 40 -8
v 9 40 -8
v 11 40 -8
v 13 40 -8
v 2 40 -9
v 3 40 -9
v 10 40 -9
v 11 40 -9
v -20 40 -10
v 20 40 -10

# faces
f 3/5/1 2/5/1 1/5/1
f 4/5/1 2/5/1 3/5/1
f 5/8/1 4/8/1 3/8/1
f 6/8/1 4/8/1 5/8/1
f 7/5/1 6/5/1 5/5/1
f 8/5/1 6/5/1 7/5/1
f 9/7/1 8/7/1 7/7/1
f 10/7/1 8/7/1 9/7/1
f 11/5/1 10/5/1 9/5/1
f 12/5/1 10/5/1 11/5/1
f 13/3/1 12/3/1 11/3/1
f 14/3/1 12/3/1 13/3/1
f 15/3/1 13/3/1 11/3/1
f 16/4/1 14/4/1 13/4/1
f 16/3/1 13/3/1 15/3/1
f 17/3/1 12/3/1 14/3/1
f 17/4/1 14/4/1 16/4/1
f 18/3/1 12/3/1 17/3/1
f 19/5/2 20/5/2 21/5/2
f 21/5/2 20/5/2 22/5/2
f 21/8/2 22/8/2 23/8/2
f 23/8/2 22/8/2 24/8/2
f 23/5/2 24/5/2 25/5/2
f 25/5/2 24/5/2 26/5/2
f 25/7/2 26/7/2 27/7/2
f 27/7/2 26/7/2 28/7/2
f 27/5/2 28/5/2 29/5/2
f 29/5/2 28/5/2 30/5/2
f 29/3/2 30/3/2 31/3/2
f 31/3/2 30/3/2 32/3/2
f 29/3/2 31/3/2 33/3/2
f 31/4/2 32/4/2 34/4/2
f 33/3/2 31/3/2 34/3/2
f 32/3/2 30/3/2 35/3/2
f 34/4/2 32/4/2 35/4/2
f 35/3/2 30/3/2 36/3/2
f 44/5/3 38/5/3 37/5/3
f 45/8/3 39/8/3 38/8/3
f 45/5/3 38/5/3 44/5/3
f 46/5/3 40/5/3 39/5/3
f 46/8/3 39/8/3 45/8/3
f 47/7/3 41/7/3 40/7/3
f 47/5/3 40/5/3 46/5/3
f 48/5/3 42/5/3 41/5/3
f 48/7/3 41/7/3 47/7/3
f 49/3/3 43/3/3 42/3/3
f 49/5/3 42/5/3 48/5/3
f 50/3/3 43/3/3 49/3/3
f 51/5/4 52/5/4 58/5/4
f 52/8/4 53/8/4 59/8/4
f 58/5/4 52/5/4 59/5/4
f 53/5/4 54/5/4 60/5/4
f 59/8/4 53/8/4 60/8/4
f 54/7/4 55/7/4 61/7/4
f 60/5/4 54/5/4 61/5/4
f 55/5/4 56/5/4 62/5/4
f 61/7/4 55/7/4 62/7/4
f 56/3/4 57/3/4 63/3/4
f 62/5/4 56/5/4 63/5/4
f 63/3/4 57/3/4 64/3/4
f 67/5/5 66/5/5 65/5/5
f 68/5/5 66/5/5 67/5/5
f 69/3/6 70/3/6 71/3/6
f 71/3/6 70/3/6 72/3/6
f 72/3/6 70/3/6 73/3/6
f 73/3/6 70/3/6 74/3/6
f 74/3/6 70/3/6 75/3/6
f 75/3/6 70/3/6 76/3/6
f 76/3/6 70/3/6 77/3/6
f 69/3/6 71/3/6 78/3/6
f 71/4/6 72/4/6 79/4/6
f 78/3/6 71/3/6 79/3/6
f 72/3/6 73/3/6 80/3/6
f 80/3/6 73/3/6 81/3/6
f 73/1/6 74/1/6 82/1/6
f 81/3/6 73/3/6 82/3/6
f 74/2/6 75/2/6 83/2/6
f 82/1/6 74/1/6 83/1/6
f 75/3/6 76/3/6 84/3/6
f 83/2/6 75/2/6 84/2/6
f 76/9/6 77/9/6 85/9/6
f 84/3/6 76/3/6 85/3/6
f 77/3/6 70/3/6 86/3/6
f 85/9/6 77/9/6 86/9/6
f 86/3/6 70/3/6 87/3/6
f 87/3/6 70/3/6 88/3/6
f 88/3/6 70/3/6 89/3/6
f 80/2/6 81/2/6 90/2/6
f 72/3/6 80/3/6 90/3/6
f 84/3/6 85/3/6 91/3/6
f 90/2/6 81/2/6 91/2/6
f 81/3/6 82/3/6 91/3/6
f 82/3/6 83/3/6 91/3/6
f 86/3/6 87/3/6 91/3/6
f 85/3/6 86/3/6 91/3/6
f 83/3/6 84/3/6 91/3/6
f 91/3/6 87/3/6 92/3/6
f 92/3/6 87/3/6 93/3/6
f 93/3/6 87/3/6 94/3/6
f 94/3/6 87/3/6 95/3/6
f 87/1/6 88/1/6 96/1/6
f 95/3/6 87/3/6 96/3/6
f 88/4/6 89/4/6 97/4/6
f 96/1/6 88/1/6 97/1/6
f 97/4/6 89/4/6 98/4/6
f 69/3/6 78/3/6 99/3/6
f 78/4/6 79/4/6 100/4/6
f 99/3/6 78/3/6 100/3/6
f 79/4/6 72/4/6 101/4/6
f 100/4/6 79/4/6 101/4/6
f 72/3/6 90/3/6 102/3/6
f 101/4/6 72/4/6 102/4/6
f 90/3/6 91/3/6 102/3/6
f 91/3/6 92/3/6 102/3/6
f 92/2/6 93/2/6 103/2/6
f 102/3/6 92/3/6 103/3/6
f 93/3/6 94/3/6 104/3/6
f 103/2/6 93/2/6 104/2/6
f 104/3/6 94/3/6 105/3/6
f 105/3/6 94/3/6 106/3/6
f 94/6/6 95/6/6 107/6/6
f 106/3/6 94/3/6 107/3/6
f 95/3/6 96/3/6 108/3/6
f 107/6/6 95/6/6 108/6/6
f 97/3/6 98/3/6 108/3/6
f 96/3/6 97/3/6 108/3/6
f 108/3/6 98/3/6 109/3/6
f 109/3/6 98/3/6 110/3/6
f 110/3/6 98/3/6 111/3/6
f 111/3/6 98/3/6 112/3/6
f 112/3/6 98/3/6 113/3/6
f 100/4/6 101/4/6 114/4/6
f 99/4/6 100/4/6 114/4/6
f 104/3/6 105/3/6 115/3/6
f 114/4/6 101/4/6 115/4/6
f 103/3/6 104/3/6 115/3/6
f 101/3/6 102/3/6 115/3/6
f 102/3/6 103/3/6 115/3/6
f 115/3/6 105/3/6 116/3/6
f 116/3/6 105/3/6 117/3/6
f 117/3/6 105/3/6 118/3/6
f 118/3/6 105/3/6 119/3/6
f 105/9/6 106/9/6 120/9/6
f 119/3/6 105/3/6 120/3/6
f 106/3/6 107/3/6 121/3/6
f 120/9/6 106/9/6 121/9/6
f 107/3/6 108/3/6 121/3/6
f 109/3/6 110/3/6 122/3/6
f 108/6/6 109/6/6 122/6/6
f 122/3/6 110/3/6 123/3/6
f 111/3/6 112/3/6 124/3/6
f 110/6/6 111/6/6 124/6/6
f 124/3/6 112/3/6 125/3/6
f 113/3/6 98/3/6 126/3/6
f 112/4/6 113/4/6 126/4/6
f 126/3/6 98/3/6 127/3/6
f 127/3/6 98/3/6 128/3/6
f 98/4/6 89/4/6 129/4/6
f 128/3/6 98/3/6 129/3/6
f 69/3/6 99/3/6 130/3/6
f 99/4/6 114/4/6 131/4/6
f 130/3/6 99/3/6 131/3/6
f 114/3/6 115/3/6 132/3/6
f 115/3/6 116/3/6 132/3/6
f 116/4/6 117/4/6 132/4/6
f 117/3/6 118/3/6 133/3/6
f 132/4/6 117/4/6 133/4/6
f 133/3/6 118/3/6 134/3/6
f 134/3/6 118/3/6 135/3/6
f 119/3/6 120/3/6 136/3/6
f 120/3/6 121/3/6 136/3/6
f 136/3/6 121/3/6 137/3/6
f 121/3/6 108/3/6 138/3/6
f 137/3/6 121/3/6 138/3/6
f 122/6/6 123/6/6 139/6/6
f 138/3/6 108/3/6 139/3/6
f 108/6/6 122/6/6 139/6/6
f 123/3/6 110/3/6 140/3/6
f 124/6/6 125/6/6 141/6/6
f 140/3/6 110/3/6 141/3/6
f 110/6/6 124/6/6 141/6/6
f 125/3/6 112/3/6 142/3/6
f 112/4/6 126/4/6 143/4/6
f 142/3/6 112/3/6 143/3/6
f 126/4/6 127/4/6 143/4/6
f 143/4/6 127/4/6 144/4/6
f 127/3/6 128/3/6 145/3/6
f 144/4/6 127/4/6 145/4/6
f 130/4/6 131/4/6 146/4/6
f 114/3/6 132/3/6 147/3/6
f 146/4/6 131/4/6 147/4/6
f 131/4/6 114/4/6 147/4/6
f 132/3/6 133/3/6 147/3/6
f 133/3/6 134/3/6 147/3/6
f 134/6/6 135/6/6 148/6/6
f 147/3/6 134/3/6 148/3/6
f 135/3/6 118/3/6 149/3/6
f 148/6/6 135/6/6 149/6/6
f 118/4/6 119/4/6 150/4/6
f 119/3/6 136/3/6 150/3/6
f 136/4/6 137/4/6 151/4/6
f 150/3/6 136/3/6 151/3/6
f 137/3/6 138/3/6 152/3/6
f 151/4/6 137/4/6 152/4/6
f 152/3/6 138/3/6 153/3/6
f 138/6/6 139/6/6 154/6/6
f 153/3/6 138/3/6 154/3/6
f 123/3/6 140/3/6 155/3/6
f 154/6/6 139/6/6 155/6/6
f 139/6/6 123/6/6 155/6/6
f 140/6/6 141/6/6 156/6/6
f 155/3/6 140/3/6 156/3/6
f 141/6/6 125/6/6 157/6/6
f 156/6/6 141/6/6 157/6/6
f 125/3/6 142/3/6 157/3/6
f 143/4/6 144/4/6 158/4/6
f 157/3/6 142/3/6 158/3/6
f 142/4/6 143/4/6 158/4/6
f 158/4/6 144/4/6 159/4/6
f 144/3/6 145/3/6 160/3/6
f 159/4/6 144/4/6 160/4/6
f 145/3/6 128/3/6 161/3/6
f 160/3/6 145/3/6 161/3/6
f 128/4/6 129/4/6 162/4/6
f 161/3/6 128/3/6 162/3/6
f 129/4/6 89/4/6 163/4/6
f 162/4/6 129/4/6 163/4/6
f 163/4/6 89/4/6 164/4/6
f 147/3/6 148/3/6 165/3/6
f 146/3/6 147/3/6 165/3/6
f 148/3/6 149/3/6 165/3/6
f 165/3/6 149/3/6 166/3/6
f 149/3/6 118/3/6 167/3/6
f 166/3/6 149/3/6 167/3/6
f 151/4/6 152/4/6 167/4/6
f 150/4/6 151/4/6 167/4/6
f 118/4/6 150/4/6 167/4/6
f 152/4/6 153/4/6 167/4/6
f 167/4/6 153/4/6 168/4/6
f 153/3/6 154/3/6 169/3/6
f 168/4/6 153/4/6 169/4/6
f 154/3/6 155/3/6 169/3/6
f 169/3/6 155/3/6 170/3/6
f 170/3/6 155/3/6 171/3/6
f 155/6/6 156/6/6 172/6/6
f 171/3/6 155/3/6 172/3/6
f 156/6/6 157/6/6 172/6/6
f 157/4/6 158/4/6 173/4/6
f 172/6/6 157/6/6 173/6/6
f 158/6/6 159/6/6 174/6/6
f 173/4/6 158/4/6 174/4/6
f 159/3/6 160/3/6 175/3/6
f 174/6/6 159/6/6 175/6/6
f 160/3/6 161/3/6 175/3/6
f 175/3/6 161/3/6 176/3/6
f 167/3/6 168/3/6 177/3/6
f 165/6/6 166/6/6 177/6/6
f 166/3/6 167/3/6 177/3/6
f 177/3/6 168/3/6 178/3/6
f 169/4/6 170/4/6 179/4/6
f 178/3/6 168/3/6 179/3/6
f 168/4/6 169/4/6 179/4/6
f 179/4/6 170/4/6 180/4/6
f 170/3/6 171/3/6 181/3/6
f 175/6/6 176/6/6 182/6/6
f 181/3/6 171/3/6 182/3/6
f 171/6/6 172/6/6 182/6/6
f 174/6/6 175/6/6 182/6/6
f 172/6/6 173/6/6 182/6/6
f 173/6/6 174/6/6 182/6/6
f 176/3/6 161/3/6 183/3/6
f 182/6/6 176/6/6 183/6/6
f 183/3/6 161/3/6 184/3/6
f 161/4/6 162/4/6 185/4/6
f 162/4/6 163/4/6 185/4/6
f 163/3/6 164/3/6 186/3/6
f 185/4/6 163/4/6 186/4/6
f 177/6/6 178/6/6 187/6/6
f 179/3/6 180/3/6 187/3/6
f 178/3/6 179/3/6 187/3/6
f 187/3/6 180/3/6 188/3/6
f 180/4/6 170/4/6 189/4/6
f 188/3/6 180/3/6 189/3/6
f 170/3/6 181/3/6 190/3/6
f 189/4/6 170/4/6 190/4/6
f 181/6/6 182/6/6 191/6/6
f 182/6/6 183/6/6 191/6/6
f 183/6/6 184/6/6 191/6/6
f 191/6/6 184/6/6 192/6/6
f 184/3/6 161/3/6 193/3/6
f 161/4/6 185/4/6 193/4/6
f 185/3/6 186/3/6 194/3/6
f 193/4/6 185/4/6 194/4/6
f 187/6/6 188/6/6 195/6/6
f 188/3/6 189/3/6 195/3/6
f 189/3/6 190/3/6 195/3/6
f 195/3/6 190/3/6 196/3/6
f 190/3/6 181/3/6 197/3/6
f 196/3/6 190/3/6 197/3/6
f 181/6/6 191/6/6 197/6/6
f 197/6/6 191/6/6 198/6/6
f 191/3/6 192/3/6 199/3/6
f 198/6/6 191/6/6 199/6/6
f 199/3/6 192/3/6 200/3/6
f 192/6/6 184/6/6 201/6/6
f 200/3/6 192/3/6 201/3/6
f 201/6/6 184/6/6 202/6/6
f 195/6/6 196/6/6 203/6/6
f 187/6/6 195/6/6 203/6/6
f 197/3/6 198/3/6 204/3/6
f 203/6/6 196/6/6 204/6/6
f 196/3/6 197/3/6 204/3/6
f 204/3/6 198/3/6 205/3/6
f 205/3/6 198/3/6 206/3/6
f 199/6/6 200/6/6 207/6/6
f 206/3/6 198/3/6 207/3/6
f 198/6/6 199/6/6 207/6/6
f 207/6/6 200/6/6 208/6/6
f 200/4/6 201/4/6 209/4/6
f 208/6/6 200/6/6 209/6/6
f 201/3/6 202/3/6 210/3/6
f 209/4/6 201/4/6 210/4/6
f 202/6/6 184/6/6 211/6/6
f 193/3/6 194/3/6 212/3/6
f 211/6/6 184/6/6 212/6/6
f 184/3/6 193/3/6 212/3/6
f 146/3/6 165/3/6 213/3/6
f 187/6/6 203/6/6 214/6/6
f 213/3/6 165/3/6 214/3/6
f 177/6/6 187/6/6 214/6/6
f 165/6/6 177/6/6 214/6/6
f 214/6/6 203/6/6 215/6/6
f 205/2/6 206/2/6 216/2/6
f 204/3/6 205/3/6 216/3/6
f 203/3/6 204/3/6 216/3/6
f 206/3/6 207/3/6 217/3/6
f 216/2/6 206/2/6 217/2/6
f 207/3/6 208/3/6 217/3/6
f 208/4/6 209/4/6 218/4/6
f 209/3/6 210/3/6 219/3/6
f 218/4/6 209/4/6 219/4/6
f 210/3/6 202/3/6 220/3/6
f 219/3/6 210/3/6 220/3/6
f 202/6/6 211/6/6 221/6/6
f 220/3/6 202/3/6 221/3/6
f 146/3/6 213/3/6 222/3/6
f 213/9/6 214/9/6 222/9/6
f 214/3/6 215/3/6 223/3/6
f 222/9/6 214/9/6 223/9/6
f 223/3/6 215/3/6 224/3/6
f 215/6/6 203/6/6 225/6/6
f 224/3/6 215/3/6 225/3/6
f 203/3/6 216/3/6 226/3/6
f 225/6/6 203/6/6 226/6/6
f 216/3/6 217/3/6 226/3/6
f 226/3/6 217/3/6 227/3/6
f 227/3/6 217/3/6 228/3/6
f 217/3/6 208/3/6 229/3/6
f 228/3/6 217/3/6 229/3/6
f 208/4/6 218/4/6 230/4/6
f 229/3/6 208/3/6 230/3/6
f 218/3/6 219/3/6 231/3/6
f 230/4/6 218/4/6 231/4/6
f 219/3/6 220/3/6 231/3/6
f 231/3/6 220/3/6 232/3/6
f 220/6/6 221/6/6 233/6/6
f 232/3/6 220/3/6 233/3/6
f 221/6/6 211/6/6 234/6/6
f 233/6/6 221/6/6 234/6/6
f 211/3/6 212/3/6 234/3/6
f 223/3/6 224/3/6 235/3/6
f 224/1/6 225/1/6 235/1/6
f 222/3/6 223/3/6 235/3/6
f 225/3/6 226/3/6 236/3/6
f 235/1/6 225/1/6 236/1/6
f 227/3/6 228/3/6 237/3/6
f 237/3/6 228/3/6 238/3/6
f 228/1/6 229/1/6 239/1/6
f 238/3/6 228/3/6 239/3/6
f 229/3/6 230/3/6 240/3/6
f 239/1/6 229/1/6 240/1/6
f 230/3/6 231/3/6 240/3/6
f 231/3/6 232/3/6 240/3/6
f 240/3/6 232/3/6 241/3/6
f 241/3/6 232/3/6 242/3/6
f 242/3/6 232/3/6 243/3/6
f 232/6/6 233/6/6 244/6/6
f 243/3/6 232/3/6 244/3/6
f 233/3/6 234/3/6 245/3/6
f 244/6/6 233/6/6 245/6/6
f 226/6/6 227/6/6 246/6/6
f 236/3/6 226/3/6 246/3/6
f 235/3/6 236/3/6 246/3/6
f 227/3/6 237/3/6 247/3/6
f 246/6/6 227/6/6 247/6/6
f 237/9/6 238/9/6 248/9/6
f 247/3/6 237/3/6 248/3/6
f 238/3/6 239/3/6 249/3/6
f 248/9/6 238/9/6 249/9/6
f 239/3/6 240/3/6 249/3/6
f 240/3/6 241/3/6 249/3/6
f 241/4/6 242/4/6 250/4/6
f 249/3/6 241/3/6 250/3/6
f 242/3/6 243/3/6 251/3/6
f 250/4/6 242/4/6 251/4/6
f 251/3/6 243/3/6 252/3/6
f 243/6/6 244/6/6 253/6/6
f 252/3/6 243/3/6 253/3/6
f 253/6/6 244/6/6 254/6/6
f 244/3/6 245/3/6 255/3/6
f 254/6/6 244/6/6 255/6/6
f 245/3/6 234/3/6 256/3/6
f 255/3/6 245/3/6 256/3/6
f 247/3/6 248/3/6 257/3/6
f 246/3/6 247/3/6 257/3/6
f 249/3/6 250/3/6 257/3/6
f 251/3/6 252/3/6 257/3/6
f 250/3/6 251/3/6 257/3/6
f 248/3/6 249/3/6 257/3/6
f 257/3/6 252/3/6 258/3/6
f 252/6/6 253/6/6 259/6/6
f 258/3/6 252/3/6 259/3/6
f 253/3/6 254/3/6 260/3/6
f 259/6/6 253/6/6 260/6/6
f 254/6/6 255/6/6 261/6/6
f 255/6/6 256/6/6 261/6/6
f 256/3/6 234/3/6 262/3/6
f 261/6/6 256/6/6 262/6/6
f 257/4/6 258/4/6 263/4/6
f 246/3/6 257/3/6 263/3/6
f 259/3/6 260/3/6 264/3/6
f 263/4/6 258/4/6 264/4/6
f 258/3/6 259/3/6 264/3/6
f 254/6/6 261/6/6 265/6/6
f 264/3/6 260/3/6 265/3/6
f 260/3/6 254/3/6 265/3/6
f 261/3/6 262/3/6 266/3/6
f 265/6/6 261/6/6 266/6/6
f 263/3/6 264/3/6 267/3/6
f 146/3/6 222/3/6 267/3/6
f 265/3/6 266/3/6 267/3/6
f 222/3/6 235/3/6 267/3/6
f 235/3/6 246/3/6 267/3/6
f 246/3/6 263/3/6 267/3/6
f 264/3/6 265/3/6 267/3/6
f 194/3/6 186/3/6 268/3/6
f 267/3/6 266/3/6 268/3/6
f 186/3/6 164/3/6 268/3/6
f 266/3/6 262/3/6 268/3/6
f 212/3/6 194/3/6 268/3/6
f 262/3/6 234/3/6 268/3/6
f 234/3/6 212/3/6 268/3/6
