# MagicaVoxel @ Ephtracy

# material
mtllib block_small_3.mtl
usemtl palette

# normals
vn -1 0 0
vn 1 0 0
vn 0 0 1
vn 0 0 -1
vn 0 -1 0
vn 0 1 0

# texcoords
vt 0.970703 0.5
vt 0.974609 0.5
vt 0.978516 0.5
vt 0.982422 0.5
vt 0.986328 0.5
vt 0.990234 0.5
vt 0.994141 0.5

# verts
v -20 0 5
v -20 0 -5
v -20 10 5
v -20 10 -5
v -20 14 5
v -20 14 -5
v -20 17 5
v -20 17 -5
v -20 27 5
v -20 27 -5
v -20 37 5
v -20 37 -5
v -20 39 5
v -20 39 3
v -20 39 1
v -20 39 -0
v -20 40 5
v -20 40 3
v -20 40 1
v -20 40 -0
v -20 40 -5
v 20 0 5
v 20 0 -5
v 20 10 5
v 20 10 -5
v 20 14 5
v 20 14 -5
v 20 17 5
v 20 17 -5
v 20 27 5
v 20 27 -5
v 20 37 5
v 20 37 -5
v 20 39 1
v 20 39 -2
v 20 40 5
v 20 40 1
v 20 40 -2
v 20 40 -5
v -20 0 5
v -20 10 5
v -20 14 5
v -20 17 5
v -20 27 5
v -20 37 5
v -20 39 5
v -20 40 5
v -16 39 5
v -16 40 5
v 6 39 5
v 6 40 5
v 9 39 5
v 9 40 5
v 15 39 5
v 15 40 5
v 16 39 5
v 16 40 5
v 20 0 5
v 20 10 5
v 20 14 5
v 20 17 5
v 20 27 5
v 20 37 5
v 20 40 5
v -20 0 -5
v -20 10 -5
v -20 14 -5
v -20 17 -5
v -20 27 -5
v -20 37 -5
v -20 40 -5
v -15 39 -5
v -15 40 -5
v -13 39 -5
v -13 40 -5
v -12 39 -5
v -12 40 -5
v -7 39 -5
v -7 40 -5
v 14 39 -5
v 14 40 -5
v 15 39 -5
v 15 40 -5
v 20 0 -5
v 20 10 -5
v 20 14 -5
v 20 17 -5
v 20 27 -5
v 20 37 -5
v 20 40 -5
v -20 0 5
v 20 0 5
v -20 0 -5
v 20 0 -5
v -20 40 5
v -16 40 5
v 6 40 5
v 9 40 5
v 15 40 5
v 16 40 5
v 20 40 5
v -19 40 4
v -18 40 4
v -17 40 4
v -16 40 4
v 7 40 4
v 9 40 4
v 14 40 4
v 15 40 4
v -20 40 3
v -19 40 3
v -16 40 3
v -15 40 3
v 1 40 3
v 2 40 3
v 4 40 3
v 6 40 3
v -19 40 2
v -18 40 2
v -17 40 2
v -16 40 2
v -15 40 2
v 1 40 2
v 2 40 2
v 3 40 2
v 4 40 2
v 6 40 2
v 7 40 2
v 10 40 2
v 14 40 2
v 16 40 2
v -20 40 1
v -19 40 1
v -18 40 1
v 3 40 1
v 4 40 1
v 5 40 1
v 6 40 1
v 7 40 1
v 18 40 1
v 20 40 1
v -20 40 -0
v -19 40 -0
v 5 40 -0
v 6 40 -0
v 8 40 -0
v 9 40 -0
v 12 40 -0
v 13 40 -0
v 15 40 -0
v 16 40 -0
v 6 40 -1
v 8 40 -1
v 9 40 -1
v 12 40 -1
v 13 40 -1
v 15 40 -1
v 16 40 -1
v 18 40 -1
v 19 40 -1
v -10 40 -2
v -8 40 -2
v 8 40 -2
v 10 40 -2
v 19 40 -2
v 20 40 -2
v -11 40 -3
v -10 40 -3
v -8 40 -3
v -7 40 -3
v -6 40 -3
v -15 40 -4
v -13 40 -4
v -12 40 -4
v -11 40 -4
v -10 40 -4
v -7 40 -4
v -6 40 -4
v 14 40 -4
v 15 40 -4
v -20 40 -5
v -15 40 -5
v -13 40 -5
v -12 40 -5
v -7 40 -5
v 14 40 -5
v 15 40 -5
v 20 40 -5

# faces
f 3/3/1 2/3/1 1/3/1
f 4/3/1 2/3/1 3/3/1
f 5/6/1 4/6/1 3/6/1
f 6/6/1 4/6/1 5/6/1
f 7/3/1 6/3/1 5/3/1
f 8/3/1 6/3/1 7/3/1
f 9/5/1 8/5/1 7/5/1
f 10/5/1 8/5/1 9/5/1
f 11/3/1 10/3/1 9/3/1
f 12/3/1 10/3/1 11/3/1
f 13/1/1 12/1/1 11/1/1
f 14/1/1 12/1/1 13/1/1
f 15/1/1 12/1/1 14/1/1
f 16/1/1 12/1/1 15/1/1
f 17/2/1 14/2/1 13/2/1
f 18/1/1 15/1/1 14/1/1
f 18/2/1 14/2/1 17/2/1
f 19/2/1 16/2/1 15/2/1
f 19/1/1 15/1/1 18/1/1
f 20/1/1 12/1/1 16/1/1
f 20/2/1 16/2/1 19/2/1
f 21/1/1 12/1/1 20/1/1
f 22/3/2 23/3/2 24/3/2
f 24/3/2 23/3/2 25/3/2
f 24/6/2 25/6/2 26/6/2
f 26/6/2 25/6/2 27/6/2
f 26/3/2 27/3/2 28/3/2
f 28/3/2 27/3/2 29/3/2
f 28/5/2 29/5/2 30/5/2
f 30/5/2 29/5/2 31/5/2
f 30/3/2 31/3/2 32/3/2
f 32/3/2 31/3/2 33/3/2
f 32/1/2 33/1/2 34/1/2
f 34/1/2 33/1/2 35/1/2
f 32/1/2 34/1/2 36/1/2
f 34/2/2 35/2/2 37/2/2
f 36/1/2 34/1/2 37/1/2
f 35/1/2 33/1/2 38/1/2
f 37/2/2 35/2/2 38/2/2
f 38/1/2 33/1/2 39/1/2
f 48/1/3 46/1/3 45/1/3
f 48/2/3 47/2/3 46/2/3
f 49/2/3 47/2/3 48/2/3
f 50/1/3 48/1/3 45/1/3
f 50/1/3 49/1/3 48/1/3
f 51/1/3 49/1/3 50/1/3
f 52/1/3 50/1/3 45/1/3
f 52/2/3 51/2/3 50/2/3
f 53/2/3 51/2/3 52/2/3
f 54/1/3 52/1/3 45/1/3
f 54/1/3 53/1/3 52/1/3
f 55/1/3 53/1/3 54/1/3
f 56/1/3 54/1/3 45/1/3
f 56/2/3 55/2/3 54/2/3
f 57/2/3 55/2/3 56/2/3
f 58/3/3 41/3/3 40/3/3
f 59/6/3 42/6/3 41/6/3
f 59/3/3 41/3/3 58/3/3
f 60/3/3 43/3/3 42/3/3
f 60/6/3 42/6/3 59/6/3
f 61/5/3 44/5/3 43/5/3
f 61/3/3 43/3/3 60/3/3
f 62/3/3 45/3/3 44/3/3
f 62/5/3 44/5/3 61/5/3
f 63/1/3 56/1/3 45/1/3
f 63/3/3 45/3/3 62/3/3
f 63/1/3 57/1/3 56/1/3
f 64/1/3 57/1/3 63/1/3
f 70/1/4 71/1/4 72/1/4
f 72/1/4 71/1/4 73/1/4
f 70/1/4 72/1/4 74/1/4
f 72/2/4 73/2/4 74/2/4
f 74/2/4 73/2/4 75/2/4
f 70/1/4 74/1/4 76/1/4
f 74/1/4 75/1/4 76/1/4
f 76/1/4 75/1/4 77/1/4
f 70/1/4 76/1/4 78/1/4
f 76/2/4 77/2/4 78/2/4
f 78/2/4 77/2/4 79/2/4
f 70/1/4 78/1/4 80/1/4
f 78/1/4 79/1/4 80/1/4
f 80/1/4 79/1/4 81/1/4
f 70/1/4 80/1/4 82/1/4
f 80/7/4 81/7/4 82/7/4
f 82/7/4 81/7/4 83/7/4
f 65/3/4 66/3/4 84/3/4
f 66/6/4 67/6/4 85/6/4
f 84/3/4 66/3/4 85/3/4
f 67/3/4 68/3/4 86/3/4
f 85/6/4 67/6/4 86/6/4
f 68/5/4 69/5/4 87/5/4
f 86/3/4 68/3/4 87/3/4
f 69/3/4 70/3/4 88/3/4
f 87/5/4 69/5/4 88/5/4
f 70/1/4 82/1/4 89/1/4
f 88/3/4 70/3/4 89/3/4
f 82/1/4 83/1/4 89/1/4
f 89/1/4 83/1/4 90/1/4
f 93/3/5 92/3/5 91/3/5
f 94/3/5 92/3/5 93/3/5
f 95/2/6 96/2/6 102/2/6
f 102/2/6 96/2/6 103/2/6
f 103/2/6 96/2/6 104/2/6
f 96/1/6 97/1/6 105/1/6
f 104/2/6 96/2/6 105/2/6
f 97/2/6 98/2/6 106/2/6
f 98/1/6 99/1/6 107/1/6
f 106/2/6 98/2/6 107/2/6
f 107/1/6 99/1/6 108/1/6
f 99/2/6 100/2/6 109/2/6
f 108/1/6 99/1/6 109/1/6
f 95/2/6 102/2/6 110/2/6
f 102/1/6 103/1/6 111/1/6
f 110/2/6 102/2/6 111/2/6
f 105/1/6 97/1/6 112/1/6
f 104/1/6 105/1/6 112/1/6
f 112/1/6 97/1/6 113/1/6
f 113/1/6 97/1/6 114/1/6
f 114/1/6 97/1/6 115/1/6
f 115/1/6 97/1/6 116/1/6
f 97/2/6 106/2/6 117/2/6
f 116/1/6 97/1/6 117/1/6
f 111/1/6 103/1/6 118/1/6
f 110/1/6 111/1/6 118/1/6
f 103/2/6 104/2/6 119/2/6
f 118/1/6 103/1/6 119/1/6
f 104/1/6 112/1/6 120/1/6
f 119/2/6 104/2/6 120/2/6
f 112/7/6 113/7/6 121/7/6
f 120/1/6 112/1/6 121/1/6
f 113/1/6 114/1/6 122/1/6
f 121/7/6 113/7/6 122/7/6
f 114/2/6 115/2/6 123/2/6
f 122/1/6 114/1/6 123/1/6
f 115/1/6 116/1/6 124/1/6
f 123/2/6 115/2/6 124/2/6
f 124/1/6 116/1/6 125/1/6
f 116/2/6 117/2/6 126/2/6
f 125/1/6 116/1/6 126/1/6
f 117/2/6 106/2/6 127/2/6
f 126/2/6 117/2/6 127/2/6
f 107/1/6 108/1/6 128/1/6
f 127/2/6 106/2/6 128/2/6
f 106/1/6 107/1/6 128/1/6
f 128/1/6 108/1/6 129/1/6
f 108/2/6 109/2/6 130/2/6
f 129/1/6 108/1/6 130/1/6
f 100/1/6 101/1/6 131/1/6
f 130/2/6 109/2/6 131/2/6
f 109/2/6 100/2/6 131/2/6
f 110/1/6 118/1/6 132/1/6
f 118/2/6 119/2/6 133/2/6
f 132/1/6 118/1/6 133/1/6
f 122/1/6 123/1/6 134/1/6
f 133/2/6 119/2/6 134/2/6
f 124/1/6 125/1/6 134/1/6
f 123/1/6 124/1/6 134/1/6
f 121/1/6 122/1/6 134/1/6
f 120/1/6 121/1/6 134/1/6
f 119/1/6 120/1/6 134/1/6
f 125/2/6 126/2/6 135/2/6
f 134/1/6 125/1/6 135/1/6
f 126/1/6 127/1/6 136/1/6
f 135/2/6 126/2/6 136/2/6
f 136/1/6 127/1/6 137/1/6
f 127/2/6 128/2/6 138/2/6
f 137/1/6 127/1/6 138/1/6
f 128/4/6 129/4/6 139/4/6
f 138/2/6 128/2/6 139/2/6
f 129/1/6 130/1/6 140/1/6
f 131/1/6 101/1/6 140/1/6
f 130/1/6 131/1/6 140/1/6
f 140/1/6 101/1/6 141/1/6
f 132/2/6 133/2/6 142/2/6
f 133/1/6 134/1/6 143/1/6
f 142/2/6 133/2/6 143/2/6
f 134/1/6 135/1/6 143/1/6
f 136/1/6 137/1/6 143/1/6
f 135/1/6 136/1/6 143/1/6
f 138/4/6 139/4/6 144/4/6
f 143/1/6 137/1/6 144/1/6
f 137/4/6 138/4/6 144/4/6
f 144/4/6 139/4/6 145/4/6
f 139/4/6 129/4/6 146/4/6
f 145/4/6 139/4/6 146/4/6
f 146/4/6 129/4/6 147/4/6
f 129/1/6 140/1/6 148/1/6
f 148/1/6 140/1/6 149/1/6
f 149/1/6 140/1/6 150/1/6
f 150/1/6 140/1/6 151/1/6
f 144/1/6 145/1/6 152/1/6
f 142/1/6 143/1/6 152/1/6
f 143/1/6 144/1/6 152/1/6
f 145/4/6 146/4/6 152/4/6
f 146/1/6 147/1/6 153/1/6
f 152/4/6 146/4/6 153/4/6
f 147/4/6 129/4/6 154/4/6
f 153/1/6 147/1/6 154/1/6
f 148/4/6 149/4/6 155/4/6
f 129/1/6 148/1/6 155/1/6
f 149/1/6 150/1/6 156/1/6
f 155/4/6 149/4/6 156/4/6
f 150/2/6 151/2/6 157/2/6
f 156/1/6 150/1/6 157/1/6
f 151/1/6 140/1/6 158/1/6
f 157/2/6 151/2/6 158/2/6
f 140/2/6 141/2/6 159/2/6
f 158/1/6 140/1/6 159/1/6
f 159/2/6 141/2/6 160/2/6
f 152/1/6 153/1/6 161/1/6
f 142/1/6 152/1/6 161/1/6
f 161/1/6 153/1/6 162/1/6
f 153/4/6 154/4/6 163/4/6
f 162/1/6 153/1/6 163/1/6
f 156/1/6 157/1/6 164/1/6
f 163/4/6 154/4/6 164/4/6
f 155/1/6 156/1/6 164/1/6
f 157/1/6 158/1/6 164/1/6
f 158/1/6 159/1/6 164/1/6
f 129/1/6 155/1/6 164/1/6
f 159/1/6 160/1/6 164/1/6
f 154/4/6 129/4/6 164/4/6
f 160/2/6 141/2/6 165/2/6
f 164/1/6 160/1/6 165/1/6
f 165/2/6 141/2/6 166/2/6
f 142/1/6 161/1/6 167/1/6
f 161/2/6 162/2/6 168/2/6
f 167/1/6 161/1/6 168/1/6
f 162/1/6 163/1/6 169/1/6
f 168/2/6 162/2/6 169/2/6
f 163/1/6 164/1/6 169/1/6
f 165/1/6 166/1/6 169/1/6
f 164/1/6 165/1/6 169/1/6
f 169/1/6 166/1/6 170/1/6
f 170/1/6 166/1/6 171/1/6
f 142/1/6 167/1/6 172/1/6
f 172/1/6 167/1/6 173/1/6
f 173/1/6 167/1/6 174/1/6
f 167/2/6 168/2/6 175/2/6
f 174/1/6 167/1/6 175/1/6
f 168/1/6 169/1/6 176/1/6
f 175/2/6 168/2/6 176/2/6
f 169/1/6 170/1/6 176/1/6
f 170/2/6 171/2/6 177/2/6
f 176/1/6 170/1/6 177/1/6
f 171/1/6 166/1/6 178/1/6
f 177/2/6 171/2/6 178/2/6
f 178/1/6 166/1/6 179/1/6
f 179/1/6 166/1/6 180/1/6
f 142/1/6 172/1/6 181/1/6
f 172/2/6 173/2/6 182/2/6
f 181/1/6 172/1/6 182/1/6
f 173/1/6 174/1/6 183/1/6
f 182/2/6 173/2/6 183/2/6
f 176/2/6 177/2/6 184/2/6
f 183/1/6 174/1/6 184/1/6
f 174/2/6 175/2/6 184/2/6
f 175/2/6 176/2/6 184/2/6
f 178/1/6 179/1/6 185/1/6
f 184/2/6 177/2/6 185/2/6
f 177/1/6 178/1/6 185/1/6
f 179/7/6 180/7/6 186/7/6
f 185/1/6 179/1/6 186/1/6
f 180/1/6 166/1/6 187/1/6
f 186/7/6 180/7/6 187/7/6
f 187/1/6 166/1/6 188/1/6
