# MagicaVoxel @ Ephtracy

# material
mtllib block_nar_4.mtl
usemtl palette

# normals
vn -1 0 0
vn 1 0 0
vn 0 0 1
vn 0 0 -1
vn 0 -1 0
vn 0 1 0

# texcoords
vt 0.939453 0.5
vt 0.970703 0.5
vt 0.974609 0.5
vt 0.978516 0.5
vt 0.982422 0.5
vt 0.986328 0.5
vt 0.990234 0.5
vt 0.994141 0.5

# verts
v -20 0 10
v -20 0 -10
v -20 10 10
v -20 10 -10
v -20 14 10
v -20 14 -10
v -20 17 10
v -20 17 -10
v -20 27 10
v -20 27 -10
v -20 37 10
v -20 37 -10
v -20 40 10
v -20 40 -10
v 20 0 10
v 20 0 -10
v 20 10 10
v 20 10 -10
v 20 14 10
v 20 14 -10
v 20 17 10
v 20 17 -10
v 20 27 10
v 20 27 -10
v 20 37 10
v 20 37 -10
v 20 40 10
v 20 40 -10
v -20 0 10
v -20 10 10
v -20 14 10
v -20 17 10
v -20 27 10
v -20 37 10
v -20 40 10
v -17 39 10
v -17 40 10
v -16 39 10
v -16 40 10
v -15 38 10
v -15 40 10
v -13 38 10
v -13 39 10
v -9 39 10
v -9 40 10
v -6 39 10
v -6 40 10
v -5 39 10
v -5 40 10
v 20 0 10
v 20 10 10
v 20 14 10
v 20 17 10
v 20 27 10
v 20 37 10
v 20 40 10
v -20 0 -10
v -20 10 -10
v -20 14 -10
v -20 17 -10
v -20 27 -10
v -20 37 -10
v -20 40 -10
v -11 39 -10
v -11 40 -10
v -10 39 -10
v -10 40 -10
v 1 39 -10
v 1 40 -10
v 2 39 -10
v 2 40 -10
v 11 39 -10
v 11 40 -10
v 14 39 -10
v 14 40 -10
v 20 0 -10
v 20 10 -10
v 20 14 -10
v 20 17 -10
v 20 27 -10
v 20 37 -10
v 20 40 -10
v -20 0 10
v 20 0 10
v -20 0 -10
v 20 0 -10
v -20 40 10
v -17 40 10
v -16 40 10
v -15 40 10
v -9 40 10
v -6 40 10
v -5 40 10
v 20 40 10
v -17 40 9
v -16 40 9
v -9 40 9
v -7 40 9
v -6 40 9
v -5 40 9
v 11 40 9
v 14 40 9
v -15 40 8
v -14 40 8
v -13 40 8
v -12 40 8
v -7 40 8
v -6 40 8
v -5 40 8
v -4 40 8
v -1 40 8
v 0 40 8
v 8 40 8
v 10 40 8
v 11 40 8
v 13 40 8
v -15 40 7
v -14 40 7
v -13 40 7
v -12 40 7
v -10 40 7
v -5 40 7
v -4 40 7
v -1 40 7
v 0 40 7
v 6 40 7
v 7 40 7
v 8 40 7
v 9 40 7
v 13 40 7
v 14 40 7
v 15 40 7
v -17 40 6
v -16 40 6
v -15 40 6
v -14 40 6
v -10 40 6
v -9 40 6
v -8 40 6
v -7 40 6
v -6 40 6
v 6 40 6
v 7 40 6
v 8 40 6
v 9 40 6
v 10 40 6
v 12 40 6
v 16 40 6
v 17 40 6
v -17 40 5
v -16 40 5
v -9 40 5
v -8 40 5
v -7 40 5
v 8 40 5
v 9 40 5
v 10 40 5
v 12 40 5
v 15 40 5
v 16 40 5
v -8 40 4
v -7 40 4
v -6 40 4
v -5 40 4
v -4 40 4
v 11 40 4
v 12 40 4
v -14 40 3
v -13 40 3
v -7 40 3
v -6 40 3
v -5 40 3
v -4 40 3
v -3 40 3
v 0 40 3
v 1 40 3
v 11 40 3
v 12 40 3
v 13 40 3
v 14 40 3
v -16 40 2
v -15 40 2
v -14 40 2
v -13 40 2
v -11 40 2
v -10 40 2
v -4 40 2
v -3 40 2
v -2 40 2
v 0 40 2
v 1 40 2
v 3 40 2
v 8 40 2
v 9 40 2
v 12 40 2
v 13 40 2
v -16 40 1
v -15 40 1
v -14 40 1
v -12 40 1
v -11 40 1
v -10 40 1
v -3 40 1
v -2 40 1
v 1 40 1
v 3 40 1
v 8 40 1
v 9 40 1
v 10 40 1
v 13 40 1
v 14 40 1
v 15 40 1
v 17 40 1
v -17 40 -0
v -14 40 -0
v 12 40 -0
v 13 40 -0
v 14 40 -0
v 15 40 -0
v -15 40 -1
v -13 40 -1
v -12 40 -1
v -11 40 -1
v 9 40 -1
v 10 40 -1
v 11 40 -1
v -17 40 -2
v -15 40 -2
v -13 40 -2
v -12 40 -2
v -10 40 -2
v -9 40 -2
v -4 40 -2
v -3 40 -2
v -1 40 -2
v 0 40 -2
v 9 40 -2
v 10 40 -2
v -15 40 -3
v -12 40 -3
v -11 40 -3
v -10 40 -3
v -9 40 -3
v -7 40 -3
v -5 40 -3
v -4 40 -3
v -1 40 -3
v 0 40 -3
v 11 40 -3
v 13 40 -3
v 15 40 -3
v 16 40 -3
v -17 40 -4
v -16 40 -4
v -15 40 -4
v -13 40 -4
v -11 40 -4
v -10 40 -4
v -9 40 -4
v -8 40 -4
v -4 40 -4
v -3 40 -4
v 8 40 -4
v 9 40 -4
v 12 40 -4
v 13 40 -4
v 15 40 -4
v 16 40 -4
v -17 40 -5
v -16 40 -5
v -14 40 -5
v -13 40 -5
v -7 40 -5
v -5 40 -5
v 7 40 -5
v 8 40 -5
v 9 40 -5
v 12 40 -5
v -14 40 -6
v -13 40 -6
v -10 40 -6
v -8 40 -6
v -7 40 -6
v -6 40 -6
v 7 40 -6
v 9 40 -6
v 12 40 -6
v 13 40 -6
v -13 40 -7
v -11 40 -7
v -8 40 -7
v -7 40 -7
v -6 40 -7
v -4 40 -7
v 15 40 -7
v 16 40 -7
v -10 40 -8
v -8 40 -8
v -7 40 -8
v -6 40 -8
v 11 40 -8
v 12 40 -8
v 13 40 -8
v 15 40 -8
v -11 40 -9
v -10 40 -9
v 1 40 -9
v 2 40 -9
v 14 40 -9
v 16 40 -9
v -20 40 -10
v -11 40 -10
v -10 40 -10
v 1 40 -10
v 2 40 -10
v 11 40 -10
v 14 40 -10
v 20 40 -10

# faces
f 3/4/1 2/4/1 1/4/1
f 4/4/1 2/4/1 3/4/1
f 5/7/1 4/7/1 3/7/1
f 6/7/1 4/7/1 5/7/1
f 7/4/1 6/4/1 5/4/1
f 8/4/1 6/4/1 7/4/1
f 9/6/1 8/6/1 7/6/1
f 10/6/1 8/6/1 9/6/1
f 11/4/1 10/4/1 9/4/1
f 12/4/1 10/4/1 11/4/1
f 13/2/1 12/2/1 11/2/1
f 14/2/1 12/2/1 13/2/1
f 15/4/2 16/4/2 17/4/2
f 17/4/2 16/4/2 18/4/2
f 17/7/2 18/7/2 19/7/2
f 19/7/2 18/7/2 20/7/2
f 19/4/2 20/4/2 21/4/2
f 21/4/2 20/4/2 22/4/2
f 21/6/2 22/6/2 23/6/2
f 23/6/2 22/6/2 24/6/2
f 23/4/2 24/4/2 25/4/2
f 25/4/2 24/4/2 26/4/2
f 25/2/2 26/2/2 27/2/2
f 27/2/2 26/2/2 28/2/2
f 36/2/3 35/2/3 34/2/3
f 37/2/3 35/2/3 36/2/3
f 38/2/3 36/2/3 34/2/3
f 38/5/3 37/5/3 36/5/3
f 39/5/3 37/5/3 38/5/3
f 40/2/3 38/2/3 34/2/3
f 40/2/3 39/2/3 38/2/3
f 41/2/3 39/2/3 40/2/3
f 42/2/3 40/2/3 34/2/3
f 42/5/3 41/5/3 40/5/3
f 43/5/3 41/5/3 42/5/3
f 44/2/3 43/2/3 42/2/3
f 44/5/3 41/5/3 43/5/3
f 45/5/3 41/5/3 44/5/3
f 46/2/3 44/2/3 42/2/3
f 46/2/3 45/2/3 44/2/3
f 47/2/3 45/2/3 46/2/3
f 48/2/3 46/2/3 42/2/3
f 48/3/3 47/3/3 46/3/3
f 49/3/3 47/3/3 48/3/3
f 50/4/3 30/4/3 29/4/3
f 51/7/3 31/7/3 30/7/3
f 51/4/3 30/4/3 50/4/3
f 52/4/3 32/4/3 31/4/3
f 52/7/3 31/7/3 51/7/3
f 53/6/3 33/6/3 32/6/3
f 53/4/3 32/4/3 52/4/3
f 54/4/3 34/4/3 33/4/3
f 54/6/3 33/6/3 53/6/3
f 55/2/3 42/2/3 34/2/3
f 55/4/3 34/4/3 54/4/3
f 55/2/3 48/2/3 42/2/3
f 55/2/3 49/2/3 48/2/3
f 56/2/3 49/2/3 55/2/3
f 62/2/4 63/2/4 64/2/4
f 64/2/4 63/2/4 65/2/4
f 62/2/4 64/2/4 66/2/4
f 64/3/4 65/3/4 66/3/4
f 66/3/4 65/3/4 67/3/4
f 62/2/4 66/2/4 68/2/4
f 66/2/4 67/2/4 68/2/4
f 68/2/4 67/2/4 69/2/4
f 62/2/4 68/2/4 70/2/4
f 68/3/4 69/3/4 70/3/4
f 70/3/4 69/3/4 71/3/4
f 62/2/4 70/2/4 72/2/4
f 70/2/4 71/2/4 72/2/4
f 72/2/4 71/2/4 73/2/4
f 62/2/4 72/2/4 74/2/4
f 72/3/4 73/3/4 74/3/4
f 74/3/4 73/3/4 75/3/4
f 57/4/4 58/4/4 76/4/4
f 58/7/4 59/7/4 77/7/4
f 76/4/4 58/4/4 77/4/4
f 59/4/4 60/4/4 78/4/4
f 77/7/4 59/7/4 78/7/4
f 60/6/4 61/6/4 79/6/4
f 78/4/4 60/4/4 79/4/4
f 61/4/4 62/4/4 80/4/4
f 79/6/4 61/6/4 80/6/4
f 62/2/4 74/2/4 81/2/4
f 80/4/4 62/4/4 81/4/4
f 74/2/4 75/2/4 81/2/4
f 81/2/4 75/2/4 82/2/4
f 85/4/5 84/4/5 83/4/5
f 86/4/5 84/4/5 85/4/5
f 87/2/6 88/2/6 95/2/6
f 88/5/6 89/5/6 95/5/6
f 89/2/6 90/2/6 96/2/6
f 95/5/6 89/5/6 96/5/6
f 90/5/6 91/5/6 97/5/6
f 91/2/6 92/2/6 97/2/6
f 97/2/6 92/2/6 98/2/6
f 92/3/6 93/3/6 99/3/6
f 98/2/6 92/2/6 99/2/6
f 93/2/6 94/2/6 100/2/6
f 99/3/6 93/3/6 100/3/6
f 100/2/6 94/2/6 101/2/6
f 101/2/6 94/2/6 102/2/6
f 97/5/6 98/5/6 103/5/6
f 96/2/6 90/2/6 103/2/6
f 95/2/6 96/2/6 103/2/6
f 90/5/6 97/5/6 103/5/6
f 103/5/6 98/5/6 104/5/6
f 104/5/6 98/5/6 105/5/6
f 105/5/6 98/5/6 106/5/6
f 98/3/6 99/3/6 107/3/6
f 106/5/6 98/5/6 107/5/6
f 99/5/6 100/5/6 108/5/6
f 107/3/6 99/3/6 108/3/6
f 100/2/6 101/2/6 109/2/6
f 108/5/6 100/5/6 109/5/6
f 109/2/6 101/2/6 110/2/6
f 110/2/6 101/2/6 111/2/6
f 111/2/6 101/2/6 112/2/6
f 112/2/6 101/2/6 113/2/6
f 113/2/6 101/2/6 114/2/6
f 101/3/6 102/3/6 115/3/6
f 114/2/6 101/2/6 115/2/6
f 115/3/6 102/3/6 116/3/6
f 95/2/6 103/2/6 117/2/6
f 103/2/6 104/2/6 117/2/6
f 104/5/6 105/5/6 118/5/6
f 117/2/6 104/2/6 118/2/6
f 105/2/6 106/2/6 119/2/6
f 118/5/6 105/5/6 119/5/6
f 107/5/6 108/5/6 120/5/6
f 119/2/6 106/2/6 120/2/6
f 106/5/6 107/5/6 120/5/6
f 120/5/6 108/5/6 121/5/6
f 108/3/6 109/3/6 122/3/6
f 109/5/6 110/5/6 122/5/6
f 110/2/6 111/2/6 123/2/6
f 122/5/6 110/5/6 123/5/6
f 111/3/6 112/3/6 124/3/6
f 123/2/6 111/2/6 124/2/6
f 112/2/6 113/2/6 125/2/6
f 124/3/6 112/3/6 125/3/6
f 125/2/6 113/2/6 126/2/6
f 126/2/6 113/2/6 127/2/6
f 113/3/6 114/3/6 128/3/6
f 127/2/6 113/2/6 128/2/6
f 128/3/6 114/3/6 129/3/6
f 114/2/6 115/2/6 130/2/6
f 116/3/6 102/3/6 130/3/6
f 115/2/6 116/2/6 130/2/6
f 102/2/6 94/2/6 131/2/6
f 130/3/6 102/3/6 131/3/6
f 131/2/6 94/2/6 132/2/6
f 87/2/6 95/2/6 133/2/6
f 95/2/6 117/2/6 133/2/6
f 133/2/6 117/2/6 134/2/6
f 117/5/6 118/5/6 135/5/6
f 134/2/6 117/2/6 135/2/6
f 118/2/6 119/2/6 136/2/6
f 135/5/6 118/5/6 136/5/6
f 120/2/6 121/2/6 136/2/6
f 119/2/6 120/2/6 136/2/6
f 121/5/6 108/5/6 137/5/6
f 136/2/6 121/2/6 137/2/6
f 137/5/6 108/5/6 138/5/6
f 138/5/6 108/5/6 139/5/6
f 139/5/6 108/5/6 140/5/6
f 108/3/6 122/3/6 141/3/6
f 140/5/6 108/5/6 141/5/6
f 126/8/6 127/8/6 142/8/6
f 122/2/6 123/2/6 142/2/6
f 123/2/6 124/2/6 142/2/6
f 124/2/6 125/2/6 142/2/6
f 125/2/6 126/2/6 142/2/6
f 128/2/6 129/2/6 143/2/6
f 142/8/6 127/8/6 143/8/6
f 127/2/6 128/2/6 143/2/6
f 143/2/6 129/2/6 144/2/6
f 129/3/6 114/3/6 145/3/6
f 144/2/6 129/2/6 145/2/6
f 114/2/6 130/2/6 146/2/6
f 145/3/6 114/3/6 146/3/6
f 130/2/6 131/2/6 146/2/6
f 146/2/6 131/2/6 147/2/6
f 132/2/6 94/2/6 148/2/6
f 148/2/6 94/2/6 149/2/6
f 133/5/6 134/5/6 150/5/6
f 87/2/6 133/2/6 150/2/6
f 134/2/6 135/2/6 151/2/6
f 150/5/6 134/5/6 151/5/6
f 136/2/6 137/2/6 151/2/6
f 135/2/6 136/2/6 151/2/6
f 137/2/6 138/2/6 151/2/6
f 138/5/6 139/5/6 152/5/6
f 151/2/6 138/2/6 152/2/6
f 139/2/6 140/2/6 153/2/6
f 152/5/6 139/5/6 153/5/6
f 140/3/6 141/3/6 154/3/6
f 153/2/6 140/2/6 154/2/6
f 144/3/6 145/3/6 155/3/6
f 143/2/6 144/2/6 155/2/6
f 142/2/6 143/2/6 155/2/6
f 145/2/6 146/2/6 156/2/6
f 155/3/6 145/3/6 156/3/6
f 146/3/6 147/3/6 157/3/6
f 156/2/6 146/2/6 157/2/6
f 147/2/6 131/2/6 158/2/6
f 157/3/6 147/3/6 158/3/6
f 132/2/6 148/2/6 159/2/6
f 131/3/6 132/3/6 159/3/6
f 148/3/6 149/3/6 160/3/6
f 159/2/6 148/2/6 160/2/6
f 153/3/6 154/3/6 161/3/6
f 151/2/6 152/2/6 161/2/6
f 152/2/6 153/2/6 161/2/6
f 150/2/6 151/2/6 161/2/6
f 154/3/6 141/3/6 162/3/6
f 161/3/6 154/3/6 162/3/6
f 141/3/6 122/3/6 163/3/6
f 162/3/6 141/3/6 163/3/6
f 156/2/6 157/2/6 164/2/6
f 163/3/6 122/3/6 164/3/6
f 122/2/6 142/2/6 164/2/6
f 142/2/6 155/2/6 164/2/6
f 157/2/6 158/2/6 164/2/6
f 155/2/6 156/2/6 164/2/6
f 164/2/6 158/2/6 165/2/6
f 165/2/6 158/2/6 166/2/6
f 158/2/6 131/2/6 167/2/6
f 166/2/6 158/2/6 167/2/6
f 150/2/6 161/2/6 168/2/6
f 161/2/6 162/2/6 168/2/6
f 168/2/6 162/2/6 169/2/6
f 162/5/6 163/5/6 170/5/6
f 169/2/6 162/2/6 170/2/6
f 163/2/6 164/2/6 171/2/6
f 170/5/6 163/5/6 171/5/6
f 164/5/6 165/5/6 172/5/6
f 171/2/6 164/2/6 172/2/6
f 165/2/6 166/2/6 173/2/6
f 172/5/6 165/5/6 173/5/6
f 173/2/6 166/2/6 174/2/6
f 174/2/6 166/2/6 175/2/6
f 175/2/6 166/2/6 176/2/6
f 166/3/6 167/3/6 177/3/6
f 176/2/6 166/2/6 177/2/6
f 167/2/6 131/2/6 178/2/6
f 177/3/6 167/3/6 178/3/6
f 178/2/6 131/2/6 179/2/6
f 159/3/6 160/3/6 180/3/6
f 179/2/6 131/2/6 180/2/6
f 131/3/6 159/3/6 180/3/6
f 150/2/6 168/2/6 181/2/6
f 181/2/6 168/2/6 182/2/6
f 168/3/6 169/3/6 183/3/6
f 182/2/6 168/2/6 183/2/6
f 171/2/6 172/2/6 184/2/6
f 183/3/6 169/3/6 184/3/6
f 169/2/6 170/2/6 184/2/6
f 170/2/6 171/2/6 184/2/6
f 172/2/6 173/2/6 184/2/6
f 184/2/6 173/2/6 185/2/6
f 185/2/6 173/2/6 186/2/6
f 173/5/6 174/5/6 187/5/6
f 186/2/6 173/2/6 187/2/6
f 174/2/6 175/2/6 188/2/6
f 187/5/6 174/5/6 188/5/6
f 188/2/6 175/2/6 189/2/6
f 175/5/6 176/5/6 190/5/6
f 189/2/6 175/2/6 190/2/6
f 176/2/6 177/2/6 191/2/6
f 190/5/6 176/5/6 191/5/6
f 178/2/6 179/2/6 191/2/6
f 177/2/6 178/2/6 191/2/6
f 191/2/6 179/2/6 192/2/6
f 192/2/6 179/2/6 193/2/6
f 193/2/6 179/2/6 194/2/6
f 194/2/6 179/2/6 195/2/6
f 179/3/6 180/3/6 196/3/6
f 195/2/6 179/2/6 196/2/6
f 181/3/6 182/3/6 197/3/6
f 150/2/6 181/2/6 197/2/6
f 182/2/6 183/2/6 198/2/6
f 197/3/6 182/3/6 198/3/6
f 184/2/6 185/2/6 198/2/6
f 183/2/6 184/2/6 198/2/6
f 198/2/6 185/2/6 199/2/6
f 199/2/6 185/2/6 200/2/6
f 185/3/6 186/3/6 201/3/6
f 200/2/6 185/2/6 201/2/6
f 187/2/6 188/2/6 202/2/6
f 201/3/6 186/3/6 202/3/6
f 186/2/6 187/2/6 202/2/6
f 188/5/6 189/5/6 203/5/6
f 202/2/6 188/2/6 203/2/6
f 189/2/6 190/2/6 204/2/6
f 203/5/6 189/5/6 204/5/6
f 190/2/6 191/2/6 204/2/6
f 191/5/6 192/5/6 205/5/6
f 204/2/6 191/2/6 205/2/6
f 192/2/6 193/2/6 206/2/6
f 205/5/6 192/5/6 206/5/6
f 193/5/6 194/5/6 207/5/6
f 206/2/6 193/2/6 207/2/6
f 194/2/6 195/2/6 208/2/6
f 207/5/6 194/5/6 208/5/6
f 208/2/6 195/2/6 209/2/6
f 196/3/6 180/3/6 210/3/6
f 195/3/6 196/3/6 210/3/6
f 180/3/6 160/3/6 211/3/6
f 210/3/6 180/3/6 211/3/6
f 211/3/6 160/3/6 212/3/6
f 149/2/6 94/2/6 213/2/6
f 212/3/6 160/3/6 213/3/6
f 160/3/6 149/3/6 213/3/6
f 87/2/6 150/2/6 214/2/6
f 150/2/6 197/2/6 214/2/6
f 198/2/6 199/2/6 214/2/6
f 197/2/6 198/2/6 214/2/6
f 199/3/6 200/3/6 215/3/6
f 214/2/6 199/2/6 215/2/6
f 209/2/6 195/2/6 216/2/6
f 195/3/6 210/3/6 216/3/6
f 210/2/6 211/2/6 217/2/6
f 216/3/6 210/3/6 217/3/6
f 211/3/6 212/3/6 218/3/6
f 217/2/6 211/2/6 218/2/6
f 212/2/6 213/2/6 219/2/6
f 218/3/6 212/3/6 219/3/6
f 214/3/6 215/3/6 220/3/6
f 215/3/6 200/3/6 221/3/6
f 220/3/6 215/3/6 221/3/6
f 202/2/6 203/2/6 222/2/6
f 221/3/6 200/3/6 222/3/6
f 201/2/6 202/2/6 222/2/6
f 200/2/6 201/2/6 222/2/6
f 203/2/6 204/2/6 222/2/6
f 204/2/6 205/2/6 222/2/6
f 205/2/6 206/2/6 222/2/6
f 207/2/6 208/2/6 222/2/6
f 206/2/6 207/2/6 222/2/6
f 222/2/6 208/2/6 223/2/6
f 208/5/6 209/5/6 224/5/6
f 223/2/6 208/2/6 224/2/6
f 216/2/6 217/2/6 225/2/6
f 224/5/6 209/5/6 225/5/6
f 218/2/6 219/2/6 225/2/6
f 209/2/6 216/2/6 225/2/6
f 217/2/6 218/2/6 225/2/6
f 225/2/6 219/2/6 226/2/6
f 214/3/6 220/3/6 227/3/6
f 87/2/6 214/2/6 227/2/6
f 220/2/6 221/2/6 228/2/6
f 227/3/6 220/3/6 228/3/6
f 221/3/6 222/3/6 229/3/6
f 228/2/6 221/2/6 229/2/6
f 222/3/6 223/3/6 229/3/6
f 229/3/6 223/3/6 230/3/6
f 223/2/6 224/2/6 231/2/6
f 224/2/6 225/2/6 231/2/6
f 231/2/6 225/2/6 232/2/6
f 232/2/6 225/2/6 233/2/6
f 233/2/6 225/2/6 234/2/6
f 234/2/6 225/2/6 235/2/6
f 235/2/6 225/2/6 236/2/6
f 236/2/6 225/2/6 237/2/6
f 225/5/6 226/5/6 238/5/6
f 237/2/6 225/2/6 238/2/6
f 227/2/6 228/2/6 239/2/6
f 229/2/6 230/2/6 239/2/6
f 228/2/6 229/2/6 239/2/6
f 230/3/6 223/3/6 240/3/6
f 239/2/6 230/2/6 240/2/6
f 223/2/6 231/2/6 241/2/6
f 240/3/6 223/3/6 241/3/6
f 231/3/6 232/3/6 242/3/6
f 241/2/6 231/2/6 242/2/6
f 232/2/6 233/2/6 243/2/6
f 242/3/6 232/3/6 243/3/6
f 243/2/6 233/2/6 244/2/6
f 244/2/6 233/2/6 245/2/6
f 233/3/6 234/3/6 246/3/6
f 245/2/6 233/2/6 246/2/6
f 235/8/6 236/8/6 247/8/6
f 234/2/6 235/2/6 247/2/6
f 236/2/6 237/2/6 248/2/6
f 247/8/6 236/8/6 248/8/6
f 226/2/6 219/2/6 249/2/6
f 238/5/6 226/5/6 249/5/6
f 237/5/6 238/5/6 249/5/6
f 249/2/6 219/2/6 250/2/6
f 219/2/6 213/2/6 251/2/6
f 250/2/6 219/2/6 251/2/6
f 251/2/6 213/2/6 252/2/6
f 227/2/6 239/2/6 253/2/6
f 87/2/6 227/2/6 253/2/6
f 253/2/6 239/2/6 254/2/6
f 239/3/6 240/3/6 255/3/6
f 254/2/6 239/2/6 255/2/6
f 240/3/6 241/3/6 255/3/6
f 241/3/6 242/3/6 255/3/6
f 255/3/6 242/3/6 256/3/6
f 256/3/6 242/3/6 257/3/6
f 242/2/6 243/2/6 258/2/6
f 257/3/6 242/3/6 258/3/6
f 243/3/6 244/3/6 259/3/6
f 258/2/6 243/2/6 259/2/6
f 259/3/6 244/3/6 260/3/6
f 246/3/6 234/3/6 261/3/6
f 245/3/6 246/3/6 261/3/6
f 247/2/6 248/2/6 262/2/6
f 261/3/6 234/3/6 262/3/6
f 234/2/6 247/2/6 262/2/6
f 248/2/6 237/2/6 263/2/6
f 262/2/6 248/2/6 263/2/6
f 249/5/6 250/5/6 264/5/6
f 263/2/6 237/2/6 264/2/6
f 237/5/6 249/5/6 264/5/6
f 264/5/6 250/5/6 265/5/6
f 250/2/6 251/2/6 266/2/6
f 265/5/6 250/5/6 266/5/6
f 251/3/6 252/3/6 267/3/6
f 266/2/6 251/2/6 267/2/6
f 252/2/6 213/2/6 268/2/6
f 267/3/6 252/3/6 268/3/6
f 253/1/6 254/1/6 269/1/6
f 87/2/6 253/2/6 269/2/6
f 255/2/6 256/2/6 270/2/6
f 269/1/6 254/1/6 270/1/6
f 254/2/6 255/2/6 270/2/6
f 270/2/6 256/2/6 271/2/6
f 256/3/6 257/3/6 272/3/6
f 271/2/6 256/2/6 272/2/6
f 260/3/6 244/3/6 273/3/6
f 244/2/6 245/2/6 273/2/6
f 245/3/6 261/3/6 274/3/6
f 273/2/6 245/2/6 274/2/6
f 261/2/6 262/2/6 275/2/6
f 262/2/6 263/2/6 275/2/6
f 264/5/6 265/5/6 276/5/6
f 275/2/6 263/2/6 276/2/6
f 263/5/6 264/5/6 276/5/6
f 276/5/6 265/5/6 277/5/6
f 266/2/6 267/2/6 278/2/6
f 277/5/6 265/5/6 278/5/6
f 265/2/6 266/2/6 278/2/6
f 267/2/6 268/2/6 278/2/6
f 269/2/6 270/2/6 279/2/6
f 271/3/6 272/3/6 279/3/6
f 270/2/6 271/2/6 279/2/6
f 272/3/6 257/3/6 280/3/6
f 279/3/6 272/3/6 280/3/6
f 257/2/6 258/2/6 281/2/6
f 258/2/6 259/2/6 281/2/6
f 259/2/6 260/2/6 281/2/6
f 260/3/6 273/3/6 282/3/6
f 281/2/6 260/2/6 282/2/6
f 273/3/6 274/3/6 282/3/6
f 282/3/6 274/3/6 283/3/6
f 283/3/6 274/3/6 284/3/6
f 276/5/6 277/5/6 285/5/6
f 275/5/6 276/5/6 285/5/6
f 261/2/6 275/2/6 285/2/6
f 277/2/6 278/2/6 286/2/6
f 285/5/6 277/5/6 286/5/6
f 278/2/6 268/2/6 287/2/6
f 286/2/6 278/2/6 287/2/6
f 287/2/6 268/2/6 288/2/6
f 280/3/6 257/3/6 289/3/6
f 279/2/6 280/2/6 289/2/6
f 257/2/6 281/2/6 290/2/6
f 289/3/6 257/3/6 290/3/6
f 282/3/6 283/3/6 291/3/6
f 281/3/6 282/3/6 291/3/6
f 283/2/6 284/2/6 292/2/6
f 291/3/6 283/3/6 292/3/6
f 284/3/6 274/3/6 293/3/6
f 292/2/6 284/2/6 293/2/6
f 274/3/6 261/3/6 294/3/6
f 293/3/6 274/3/6 294/3/6
f 285/2/6 286/2/6 294/2/6
f 286/2/6 287/2/6 294/2/6
f 261/2/6 285/2/6 294/2/6
f 288/2/6 268/2/6 295/2/6
f 268/2/6 213/2/6 296/2/6
f 295/2/6 268/2/6 296/2/6
f 281/3/6 291/3/6 297/3/6
f 289/2/6 290/2/6 297/2/6
f 290/2/6 281/2/6 297/2/6
f 291/2/6 292/2/6 298/2/6
f 297/3/6 291/3/6 298/3/6
f 292/3/6 293/3/6 299/3/6
f 298/2/6 292/2/6 299/2/6
f 293/2/6 294/2/6 300/2/6
f 299/3/6 293/3/6 300/3/6
f 294/2/6 287/2/6 301/2/6
f 300/2/6 294/2/6 301/2/6
f 287/3/6 288/3/6 302/3/6
f 301/2/6 287/2/6 302/2/6
f 288/2/6 295/2/6 303/2/6
f 302/3/6 288/3/6 303/3/6
f 295/3/6 296/3/6 304/3/6
f 303/2/6 295/2/6 304/2/6
f 289/2/6 297/2/6 305/2/6
f 297/2/6 298/2/6 305/2/6
f 299/2/6 300/2/6 305/2/6
f 298/2/6 299/2/6 305/2/6
f 300/2/6 301/2/6 305/2/6
f 305/2/6 301/2/6 306/2/6
f 306/2/6 301/2/6 307/2/6
f 307/2/6 301/2/6 308/2/6
f 303/3/6 304/3/6 309/3/6
f 302/3/6 303/3/6 309/3/6
f 301/3/6 302/3/6 309/3/6
f 304/3/6 296/3/6 310/3/6
f 309/3/6 304/3/6 310/3/6
f 296/2/6 213/2/6 310/2/6
f 279/2/6 289/2/6 311/2/6
f 87/2/6 269/2/6 311/2/6
f 269/2/6 279/2/6 311/2/6
f 289/2/6 305/2/6 311/2/6
f 305/3/6 306/3/6 312/3/6
f 311/2/6 305/2/6 312/2/6
f 306/2/6 307/2/6 313/2/6
f 312/3/6 306/3/6 313/3/6
f 307/3/6 308/3/6 314/3/6
f 313/2/6 307/2/6 314/2/6
f 308/2/6 301/2/6 315/2/6
f 314/3/6 308/3/6 315/3/6
f 301/3/6 309/3/6 316/3/6
f 315/2/6 301/2/6 316/2/6
f 309/2/6 310/2/6 317/2/6
f 316/3/6 309/3/6 317/3/6
f 310/2/6 213/2/6 318/2/6
f 317/2/6 310/2/6 318/2/6
f 213/2/6 94/2/6 318/2/6
