# MagicaVoxel @ Ephtracy

# material
mtllib block3.mtl
usemtl palette

# normals
vn -1 0 0
vn 1 0 0
vn 0 0 1
vn 0 0 -1
vn 0 -1 0
vn 0 1 0

# texcoords
vt 0.939453 0.5
vt 0.943359 0.5
vt 0.970703 0.5
vt 0.974609 0.5
vt 0.978516 0.5
vt 0.986328 0.5
vt 0.990234 0.5
vt 0.994141 0.5

# verts
v -20 0 20
v -20 0 -20
v -20 10 20
v -20 10 -20
v -20 14 20
v -20 14 -20
v -20 17 20
v -20 17 -20
v -20 27 20
v -20 27 -20
v -20 37 20
v -20 37 -20
v -20 40 20
v -20 40 -20
v 20 0 20
v 20 0 -20
v 20 10 20
v 20 10 -20
v 20 14 20
v 20 14 -20
v 20 17 20
v 20 17 -20
v 20 27 20
v 20 27 -20
v 20 37 20
v 20 37 -20
v 20 39 -11
v 20 39 -14
v 20 39 -16
v 20 39 -20
v 20 40 20
v 20 40 -11
v 20 40 -14
v 20 40 -16
v 20 40 -20
v -20 0 20
v -20 10 20
v -20 14 20
v -20 17 20
v -20 27 20
v -20 37 20
v -20 40 20
v 20 0 20
v 20 10 20
v 20 14 20
v 20 17 20
v 20 27 20
v 20 37 20
v 20 40 20
v -20 0 -20
v -20 10 -20
v -20 14 -20
v -20 17 -20
v -20 27 -20
v -20 37 -20
v -20 40 -20
v 16 39 -20
v 16 40 -20
v 20 0 -20
v 20 10 -20
v 20 14 -20
v 20 17 -20
v 20 27 -20
v 20 37 -20
v 20 39 -20
v 20 40 -20
v -20 0 20
v 20 0 20
v -20 0 -20
v 20 0 -20
v -20 40 20
v 20 40 20
v -14 40 18
v -13 40 18
v 16 40 18
v 17 40 18
v -15 40 17
v -14 40 17
v -13 40 17
v -11 40 17
v 16 40 17
v 17 40 17
v -17 40 16
v -15 40 16
v -5 40 16
v -4 40 16
v 9 40 16
v 10 40 16
v -16 40 15
v -15 40 15
v -13 40 15
v -11 40 15
v -5 40 15
v -4 40 15
v 9 40 15
v 10 40 15
v -17 40 14
v -16 40 14
v 0 40 14
v 3 40 14
v 10 40 14
v 13 40 14
v -19 40 13
v -18 40 13
v -15 40 13
v -13 40 13
v -12 40 13
v -7 40 13
v -6 40 13
v 0 40 13
v 2 40 13
v 3 40 13
v 5 40 13
v 10 40 13
v 12 40 13
v 13 40 13
v 16 40 13
v -19 40 12
v -18 40 12
v -13 40 12
v -12 40 12
v -9 40 12
v -8 40 12
v -7 40 12
v -6 40 12
v 1 40 12
v 2 40 12
v -9 40 11
v -8 40 11
v 4 40 11
v 5 40 11
v 14 40 11
v 15 40 11
v 3 40 10
v 4 40 10
v 5 40 10
v 6 40 10
v 7 40 10
v 12 40 10
v 14 40 10
v 15 40 10
v 2 40 9
v 3 40 9
v 4 40 9
v 5 40 9
v 6 40 9
v 7 40 9
v 15 40 9
v 16 40 9
v 18 40 9
v 19 40 9
v -12 40 8
v -11 40 8
v 1 40 8
v 2 40 8
v 14 40 8
v 15 40 8
v 18 40 8
v 19 40 8
v -14 40 7
v -12 40 7
v 16 40 7
v 17 40 7
v -14 40 6
v -13 40 6
v -12 40 6
v -11 40 6
v 16 40 6
v 17 40 6
v -11 40 5
v -10 40 5
v 6 40 5
v 7 40 5
v -17 40 4
v -16 40 4
v -13 40 4
v -12 40 4
v -11 40 4
v -10 40 4
v -17 40 3
v -16 40 3
v 4 40 3
v 5 40 3
v 7 40 3
v 9 40 3
v -16 40 2
v -15 40 2
v 4 40 2
v 5 40 2
v 6 40 2
v 7 40 2
v -17 40 1
v -16 40 1
v -15 40 1
v 6 40 1
v 7 40 1
v 8 40 1
v -17 40 -0
v -16 40 -0
v 5 40 -0
v 6 40 -0
v 7 40 -0
v 8 40 -0
v 9 40 -0
v 5 40 -1
v 6 40 -1
v 8 40 -2
v 9 40 -2
v 8 40 -3
v 9 40 -3
v 4 40 -5
v 5 40 -5
v 3 40 -6
v 4 40 -6
v -15 40 -7
v -13 40 -7
v 3 40 -7
v 5 40 -7
v -17 40 -8
v -16 40 -8
v -14 40 -8
v -13 40 -8
v -15 40 -9
v -14 40 -9
v -8 40 -9
v -7 40 -9
v 14 40 -9
v 15 40 -9
v -17 40 -10
v -16 40 -10
v -14 40 -10
v -8 40 -10
v -7 40 -10
v 9 40 -10
v 10 40 -10
v 14 40 -10
v 15 40 -10
v -13 40 -11
v -12 40 -11
v -8 40 -11
v -6 40 -11
v 9 40 -11
v 10 40 -11
v 11 40 -11
v 19 40 -11
v 20 40 -11
v -16 40 -12
v -15 40 -12
v -14 40 -12
v -13 40 -12
v -8 40 -12
v -6 40 -12
v -14 40 -13
v -12 40 -13
v 8 40 -13
v 10 40 -13
v 11 40 -13
v 12 40 -13
v -18 40 -14
v -17 40 -14
v -15 40 -14
v -14 40 -14
v 19 40 -14
v 20 40 -14
v -18 40 -15
v -17 40 -15
v 2 40 -15
v 3 40 -15
v 8 40 -15
v 9 40 -15
v 11 40 -15
v 12 40 -15
v 16 40 -15
v 17 40 -15
v -14 40 -16
v -13 40 -16
v 0 40 -16
v 1 40 -16
v 2 40 -16
v 3 40 -16
v 9 40 -16
v 10 40 -16
v 16 40 -16
v 17 40 -16
v 19 40 -16
v 20 40 -16
v -14 40 -17
v -13 40 -17
v 0 40 -17
v 1 40 -17
v 10 40 -17
v 11 40 -17
v 18 40 -17
v 19 40 -17
v 16 40 -19
v 18 40 -19
v -20 40 -20
v 16 40 -20
v 20 40 -20

# faces
f 3/5/1 2/5/1 1/5/1
f 4/5/1 2/5/1 3/5/1
f 5/7/1 4/7/1 3/7/1
f 6/7/1 4/7/1 5/7/1
f 7/5/1 6/5/1 5/5/1
f 8/5/1 6/5/1 7/5/1
f 9/6/1 8/6/1 7/6/1
f 10/6/1 8/6/1 9/6/1
f 11/5/1 10/5/1 9/5/1
f 12/5/1 10/5/1 11/5/1
f 13/3/1 12/3/1 11/3/1
f 14/3/1 12/3/1 13/3/1
f 15/5/2 16/5/2 17/5/2
f 17/5/2 16/5/2 18/5/2
f 17/7/2 18/7/2 19/7/2
f 19/7/2 18/7/2 20/7/2
f 19/5/2 20/5/2 21/5/2
f 21/5/2 20/5/2 22/5/2
f 21/6/2 22/6/2 23/6/2
f 23/6/2 22/6/2 24/6/2
f 23/5/2 24/5/2 25/5/2
f 25/5/2 24/5/2 26/5/2
f 25/3/2 26/3/2 27/3/2
f 27/3/2 26/3/2 28/3/2
f 28/3/2 26/3/2 29/3/2
f 29/3/2 26/3/2 30/3/2
f 25/3/2 27/3/2 31/3/2
f 27/4/2 28/4/2 32/4/2
f 31/3/2 27/3/2 32/3/2
f 28/3/2 29/3/2 33/3/2
f 32/4/2 28/4/2 33/4/2
f 29/4/2 30/4/2 34/4/2
f 33/3/2 29/3/2 34/3/2
f 34/4/2 30/4/2 35/4/2
f 43/5/3 37/5/3 36/5/3
f 44/7/3 38/7/3 37/7/3
f 44/5/3 37/5/3 43/5/3
f 45/5/3 39/5/3 38/5/3
f 45/7/3 38/7/3 44/7/3
f 46/6/3 40/6/3 39/6/3
f 46/5/3 39/5/3 45/5/3
f 47/5/3 41/5/3 40/5/3
f 47/6/3 40/6/3 46/6/3
f 48/3/3 42/3/3 41/3/3
f 48/5/3 41/5/3 47/5/3
f 49/3/3 42/3/3 48/3/3
f 55/3/4 56/3/4 57/3/4
f 57/3/4 56/3/4 58/3/4
f 50/5/4 51/5/4 59/5/4
f 51/7/4 52/7/4 60/7/4
f 59/5/4 51/5/4 60/5/4
f 52/5/4 53/5/4 61/5/4
f 60/7/4 52/7/4 61/7/4
f 53/6/4 54/6/4 62/6/4
f 61/5/4 53/5/4 62/5/4
f 54/5/4 55/5/4 63/5/4
f 62/6/4 54/6/4 63/6/4
f 55/3/4 57/3/4 64/3/4
f 63/5/4 55/5/4 64/5/4
f 57/4/4 58/4/4 65/4/4
f 64/3/4 57/3/4 65/3/4
f 65/4/4 58/4/4 66/4/4
f 69/5/5 68/5/5 67/5/5
f 70/5/5 68/5/5 69/5/5
f 71/3/6 72/3/6 73/3/6
f 73/3/6 72/3/6 74/3/6
f 74/3/6 72/3/6 75/3/6
f 75/3/6 72/3/6 76/3/6
f 71/3/6 73/3/6 77/3/6
f 73/4/6 74/4/6 78/4/6
f 77/3/6 73/3/6 78/3/6
f 74/3/6 75/3/6 79/3/6
f 78/4/6 74/4/6 79/4/6
f 79/3/6 75/3/6 80/3/6
f 75/8/6 76/8/6 81/8/6
f 80/3/6 75/3/6 81/3/6
f 76/3/6 72/3/6 82/3/6
f 81/8/6 76/8/6 82/8/6
f 71/3/6 77/3/6 83/3/6
f 77/4/6 78/4/6 84/4/6
f 83/3/6 77/3/6 84/3/6
f 79/4/6 80/4/6 84/4/6
f 78/4/6 79/4/6 84/4/6
f 80/3/6 81/3/6 85/3/6
f 81/3/6 82/3/6 85/3/6
f 85/3/6 82/3/6 86/3/6
f 86/3/6 82/3/6 87/3/6
f 87/3/6 82/3/6 88/3/6
f 83/4/6 84/4/6 89/4/6
f 84/4/6 80/4/6 90/4/6
f 89/4/6 84/4/6 90/4/6
f 90/4/6 80/4/6 91/4/6
f 80/3/6 85/3/6 92/3/6
f 91/4/6 80/4/6 92/4/6
f 85/8/6 86/8/6 93/8/6
f 92/3/6 85/3/6 93/3/6
f 86/3/6 87/3/6 94/3/6
f 93/8/6 86/8/6 94/8/6
f 87/4/6 88/4/6 95/4/6
f 94/3/6 87/3/6 95/3/6
f 88/3/6 82/3/6 96/3/6
f 95/4/6 88/4/6 96/4/6
f 83/4/6 89/4/6 97/4/6
f 71/3/6 83/3/6 97/3/6
f 89/3/6 90/3/6 98/3/6
f 97/4/6 89/4/6 98/4/6
f 95/3/6 96/3/6 99/3/6
f 94/3/6 95/3/6 99/3/6
f 91/3/6 92/3/6 99/3/6
f 92/3/6 93/3/6 99/3/6
f 93/3/6 94/3/6 99/3/6
f 99/3/6 96/3/6 100/3/6
f 96/3/6 82/3/6 101/3/6
f 100/3/6 96/3/6 101/3/6
f 101/3/6 82/3/6 102/3/6
f 97/3/6 98/3/6 103/3/6
f 71/3/6 97/3/6 103/3/6
f 103/3/6 98/3/6 104/3/6
f 98/3/6 90/3/6 105/3/6
f 104/3/6 98/3/6 105/3/6
f 90/4/6 91/4/6 105/4/6
f 91/3/6 99/3/6 106/3/6
f 105/4/6 91/4/6 106/4/6
f 106/3/6 99/3/6 107/3/6
f 107/3/6 99/3/6 108/3/6
f 108/3/6 99/3/6 109/3/6
f 99/4/6 100/4/6 110/4/6
f 109/3/6 99/3/6 110/3/6
f 110/4/6 100/4/6 111/4/6
f 100/3/6 101/3/6 112/3/6
f 111/4/6 100/4/6 112/4/6
f 112/3/6 101/3/6 113/3/6
f 101/4/6 102/4/6 114/4/6
f 113/3/6 101/3/6 114/3/6
f 114/4/6 102/4/6 115/4/6
f 102/3/6 82/3/6 116/3/6
f 115/4/6 102/4/6 116/4/6
f 116/3/6 82/3/6 117/3/6
f 103/4/6 104/4/6 118/4/6
f 71/3/6 103/3/6 118/3/6
f 104/3/6 105/3/6 119/3/6
f 118/4/6 104/4/6 119/4/6
f 105/3/6 106/3/6 119/3/6
f 106/4/6 107/4/6 120/4/6
f 119/3/6 106/3/6 120/3/6
f 107/3/6 108/3/6 121/3/6
f 120/4/6 107/4/6 121/4/6
f 121/3/6 108/3/6 122/3/6
f 122/3/6 108/3/6 123/3/6
f 108/1/6 109/1/6 124/1/6
f 123/3/6 108/3/6 124/3/6
f 110/3/6 111/3/6 125/3/6
f 124/1/6 109/1/6 125/1/6
f 109/3/6 110/3/6 125/3/6
f 125/3/6 111/3/6 126/3/6
f 112/4/6 113/4/6 127/4/6
f 126/3/6 111/3/6 127/3/6
f 111/4/6 112/4/6 127/4/6
f 122/8/6 123/8/6 128/8/6
f 118/3/6 119/3/6 128/3/6
f 119/3/6 120/3/6 128/3/6
f 120/3/6 121/3/6 128/3/6
f 121/3/6 122/3/6 128/3/6
f 125/3/6 126/3/6 129/3/6
f 128/8/6 123/8/6 129/8/6
f 123/3/6 124/3/6 129/3/6
f 124/3/6 125/3/6 129/3/6
f 127/4/6 113/4/6 130/4/6
f 126/4/6 127/4/6 130/4/6
f 114/3/6 115/3/6 131/3/6
f 130/4/6 113/4/6 131/4/6
f 113/3/6 114/3/6 131/3/6
f 116/4/6 117/4/6 132/4/6
f 115/4/6 116/4/6 132/4/6
f 132/4/6 117/4/6 133/4/6
f 126/4/6 130/4/6 134/4/6
f 130/3/6 131/3/6 135/3/6
f 134/4/6 130/4/6 135/4/6
f 131/3/6 115/3/6 136/3/6
f 135/3/6 131/3/6 136/3/6
f 136/3/6 115/3/6 137/3/6
f 137/3/6 115/3/6 138/3/6
f 115/4/6 132/4/6 139/4/6
f 138/3/6 115/3/6 139/3/6
f 132/3/6 133/3/6 140/3/6
f 139/4/6 132/4/6 140/4/6
f 133/4/6 117/4/6 141/4/6
f 140/3/6 133/3/6 141/3/6
f 126/4/6 134/4/6 142/4/6
f 134/3/6 135/3/6 143/3/6
f 142/4/6 134/4/6 143/4/6
f 135/4/6 136/4/6 144/4/6
f 143/3/6 135/3/6 144/3/6
f 136/3/6 137/3/6 145/3/6
f 144/4/6 136/4/6 145/4/6
f 137/4/6 138/4/6 146/4/6
f 145/3/6 137/3/6 146/3/6
f 139/3/6 140/3/6 147/3/6
f 146/4/6 138/4/6 147/4/6
f 138/3/6 139/3/6 147/3/6
f 141/4/6 117/4/6 148/4/6
f 140/4/6 141/4/6 148/4/6
f 117/3/6 82/3/6 149/3/6
f 148/4/6 117/4/6 149/4/6
f 82/3/6 72/3/6 150/3/6
f 149/3/6 82/3/6 150/3/6
f 150/3/6 72/3/6 151/3/6
f 118/3/6 128/3/6 152/3/6
f 128/3/6 129/3/6 152/3/6
f 152/3/6 129/3/6 153/3/6
f 129/3/6 126/3/6 154/3/6
f 153/3/6 129/3/6 154/3/6
f 126/4/6 142/4/6 154/4/6
f 145/3/6 146/3/6 155/3/6
f 154/4/6 142/4/6 155/4/6
f 144/3/6 145/3/6 155/3/6
f 146/3/6 147/3/6 155/3/6
f 143/3/6 144/3/6 155/3/6
f 142/3/6 143/3/6 155/3/6
f 140/4/6 148/4/6 156/4/6
f 155/3/6 147/3/6 156/3/6
f 147/3/6 140/3/6 156/3/6
f 148/3/6 149/3/6 157/3/6
f 156/4/6 148/4/6 157/4/6
f 149/3/6 150/3/6 157/3/6
f 150/2/6 151/2/6 158/2/6
f 157/3/6 150/3/6 158/3/6
f 151/3/6 72/3/6 159/3/6
f 158/2/6 151/2/6 159/2/6
f 118/3/6 152/3/6 160/3/6
f 152/4/6 153/4/6 161/4/6
f 160/3/6 152/3/6 161/3/6
f 155/3/6 156/3/6 162/3/6
f 154/3/6 155/3/6 162/3/6
f 153/3/6 154/3/6 162/3/6
f 158/3/6 159/3/6 162/3/6
f 156/3/6 157/3/6 162/3/6
f 157/3/6 158/3/6 162/3/6
f 162/3/6 159/3/6 163/3/6
f 118/3/6 160/3/6 164/3/6
f 160/4/6 161/4/6 164/4/6
f 164/4/6 161/4/6 165/4/6
f 161/4/6 153/4/6 166/4/6
f 165/4/6 161/4/6 166/4/6
f 153/3/6 162/3/6 167/3/6
f 166/4/6 153/4/6 167/4/6
f 162/8/6 163/8/6 168/8/6
f 167/3/6 162/3/6 168/3/6
f 163/3/6 159/3/6 169/3/6
f 168/8/6 163/8/6 169/8/6
f 167/3/6 168/3/6 170/3/6
f 166/3/6 167/3/6 170/3/6
f 168/3/6 169/3/6 170/3/6
f 170/3/6 169/3/6 171/3/6
f 171/3/6 169/3/6 172/3/6
f 172/3/6 169/3/6 173/3/6
f 164/3/6 165/3/6 174/3/6
f 118/3/6 164/3/6 174/3/6
f 174/3/6 165/3/6 175/3/6
f 165/4/6 166/4/6 176/4/6
f 175/3/6 165/3/6 176/3/6
f 166/3/6 170/3/6 177/3/6
f 176/4/6 166/4/6 177/4/6
f 170/4/6 171/4/6 178/4/6
f 177/3/6 170/3/6 178/3/6
f 171/3/6 172/3/6 179/3/6
f 178/4/6 171/4/6 179/4/6
f 174/1/6 175/1/6 180/1/6
f 118/3/6 174/3/6 180/3/6
f 175/3/6 176/3/6 181/3/6
f 180/1/6 175/1/6 181/1/6
f 176/3/6 177/3/6 181/3/6
f 178/3/6 179/3/6 181/3/6
f 177/3/6 178/3/6 181/3/6
f 179/3/6 172/3/6 182/3/6
f 181/3/6 179/3/6 182/3/6
f 182/3/6 172/3/6 183/3/6
f 173/3/6 169/3/6 184/3/6
f 172/4/6 173/4/6 184/4/6
f 184/3/6 169/3/6 185/3/6
f 180/3/6 181/3/6 186/3/6
f 181/3/6 182/3/6 186/3/6
f 186/3/6 182/3/6 187/3/6
f 182/1/6 183/1/6 188/1/6
f 187/3/6 182/3/6 188/3/6
f 183/3/6 172/3/6 189/3/6
f 188/1/6 183/1/6 189/1/6
f 184/4/6 185/4/6 190/4/6
f 189/3/6 172/3/6 190/3/6
f 172/4/6 184/4/6 190/4/6
f 190/4/6 185/4/6 191/4/6
f 118/3/6 180/3/6 192/3/6
f 180/3/6 186/3/6 192/3/6
f 186/8/6 187/8/6 193/8/6
f 192/3/6 186/3/6 193/3/6
f 187/3/6 188/3/6 194/3/6
f 193/8/6 187/8/6 194/8/6
f 188/3/6 189/3/6 194/3/6
f 189/3/6 190/3/6 194/3/6
f 190/3/6 191/3/6 194/3/6
f 194/3/6 191/3/6 195/3/6
f 191/4/6 185/4/6 196/4/6
f 195/3/6 191/3/6 196/3/6
f 196/4/6 185/4/6 197/4/6
f 192/2/6 193/2/6 198/2/6
f 118/3/6 192/3/6 198/3/6
f 194/3/6 195/3/6 199/3/6
f 198/2/6 193/2/6 199/2/6
f 193/3/6 194/3/6 199/3/6
f 199/3/6 195/3/6 200/3/6
f 195/2/6 196/2/6 201/2/6
f 200/3/6 195/3/6 201/3/6
f 196/3/6 197/3/6 202/3/6
f 201/2/6 196/2/6 202/2/6
f 197/4/6 185/4/6 203/4/6
f 202/3/6 197/3/6 203/3/6
f 185/3/6 169/3/6 204/3/6
f 203/4/6 185/4/6 204/4/6
f 200/8/6 201/8/6 205/8/6
f 199/3/6 200/3/6 205/3/6
f 198/3/6 199/3/6 205/3/6
f 201/3/6 202/3/6 206/3/6
f 205/8/6 201/8/6 206/8/6
f 202/3/6 203/3/6 206/3/6
f 203/3/6 204/3/6 206/3/6
f 205/3/6 206/3/6 207/3/6
f 206/3/6 204/3/6 207/3/6
f 204/3/6 169/3/6 208/3/6
f 207/3/6 204/3/6 208/3/6
f 205/3/6 207/3/6 209/3/6
f 207/4/6 208/4/6 209/4/6
f 208/3/6 169/3/6 210/3/6
f 209/4/6 208/4/6 210/4/6
f 198/3/6 205/3/6 211/3/6
f 205/3/6 209/3/6 211/3/6
f 209/3/6 210/3/6 211/3/6
f 211/3/6 210/3/6 212/3/6
f 198/3/6 211/3/6 213/3/6
f 211/4/6 212/4/6 214/4/6
f 213/3/6 211/3/6 214/3/6
f 198/3/6 213/3/6 215/3/6
f 215/3/6 213/3/6 216/3/6
f 213/4/6 214/4/6 217/4/6
f 216/3/6 213/3/6 217/3/6
f 212/3/6 210/3/6 218/3/6
f 217/4/6 214/4/6 218/4/6
f 214/4/6 212/4/6 218/4/6
f 118/3/6 198/3/6 219/3/6
f 198/3/6 215/3/6 219/3/6
f 219/3/6 215/3/6 220/3/6
f 215/4/6 216/4/6 221/4/6
f 216/3/6 217/3/6 222/3/6
f 221/4/6 216/4/6 222/4/6
f 217/3/6 218/3/6 222/3/6
f 215/4/6 221/4/6 223/4/6
f 220/3/6 215/3/6 223/3/6
f 221/3/6 222/3/6 224/3/6
f 223/4/6 221/4/6 224/4/6
f 222/3/6 218/3/6 225/3/6
f 224/3/6 222/3/6 225/3/6
f 225/3/6 218/3/6 226/3/6
f 210/3/6 169/3/6 227/3/6
f 226/3/6 218/3/6 227/3/6
f 218/3/6 210/3/6 227/3/6
f 227/3/6 169/3/6 228/3/6
f 219/4/6 220/4/6 229/4/6
f 118/3/6 219/3/6 229/3/6
f 224/3/6 225/3/6 230/3/6
f 229/4/6 220/4/6 230/4/6
f 223/3/6 224/3/6 230/3/6
f 220/3/6 223/3/6 230/3/6
f 230/3/6 225/3/6 231/3/6
f 225/1/6 226/1/6 232/1/6
f 231/3/6 225/3/6 232/3/6
f 226/3/6 227/3/6 233/3/6
f 232/1/6 226/1/6 233/1/6
f 233/3/6 227/3/6 234/3/6
f 234/3/6 227/3/6 235/3/6
f 227/4/6 228/4/6 236/4/6
f 235/3/6 227/3/6 236/3/6
f 228/3/6 169/3/6 237/3/6
f 236/4/6 228/4/6 237/4/6
f 231/3/6 232/3/6 238/3/6
f 232/3/6 233/3/6 238/3/6
f 233/3/6 234/3/6 238/3/6
f 238/3/6 234/3/6 239/3/6
f 239/3/6 234/3/6 240/3/6
f 240/3/6 234/3/6 241/3/6
f 234/4/6 235/4/6 242/4/6
f 241/3/6 234/3/6 242/3/6
f 235/3/6 236/3/6 243/3/6
f 242/4/6 235/4/6 243/4/6
f 236/3/6 237/3/6 243/3/6
f 243/3/6 237/3/6 244/3/6
f 169/3/6 159/3/6 245/3/6
f 244/3/6 237/3/6 245/3/6
f 159/3/6 72/3/6 245/3/6
f 237/3/6 169/3/6 245/3/6
f 245/3/6 72/3/6 246/3/6
f 230/4/6 231/4/6 247/4/6
f 229/3/6 230/3/6 247/3/6
f 247/4/6 231/4/6 248/4/6
f 231/3/6 238/3/6 249/3/6
f 248/4/6 231/4/6 249/4/6
f 238/4/6 239/4/6 250/4/6
f 249/3/6 238/3/6 250/3/6
f 240/4/6 241/4/6 251/4/6
f 239/3/6 240/3/6 251/3/6
f 242/3/6 243/3/6 252/3/6
f 251/4/6 241/4/6 252/4/6
f 241/3/6 242/3/6 252/3/6
f 248/4/6 249/4/6 253/4/6
f 249/4/6 250/4/6 253/4/6
f 239/3/6 251/3/6 254/3/6
f 253/4/6 250/4/6 254/4/6
f 250/4/6 239/4/6 254/4/6
f 251/3/6 252/3/6 254/3/6
f 252/3/6 243/3/6 255/3/6
f 254/3/6 252/3/6 255/3/6
f 243/4/6 244/4/6 256/4/6
f 255/3/6 243/3/6 256/3/6
f 244/3/6 245/3/6 257/3/6
f 256/4/6 244/4/6 257/4/6
f 257/3/6 245/3/6 258/3/6
f 118/3/6 229/3/6 259/3/6
f 229/3/6 247/3/6 259/3/6
f 247/3/6 248/3/6 259/3/6
f 259/3/6 248/3/6 260/3/6
f 248/4/6 253/4/6 261/4/6
f 260/3/6 248/3/6 261/3/6
f 254/3/6 255/3/6 262/3/6
f 261/4/6 253/4/6 262/4/6
f 253/3/6 254/3/6 262/3/6
f 258/3/6 245/3/6 263/3/6
f 245/4/6 246/4/6 263/4/6
f 263/4/6 246/4/6 264/4/6
f 259/4/6 260/4/6 265/4/6
f 118/3/6 259/3/6 265/3/6
f 260/3/6 261/3/6 266/3/6
f 265/4/6 260/4/6 266/4/6
f 261/3/6 262/3/6 266/3/6
f 262/3/6 255/3/6 267/3/6
f 266/3/6 262/3/6 267/3/6
f 267/3/6 255/3/6 268/3/6
f 257/4/6 258/4/6 269/4/6
f 268/3/6 255/3/6 269/3/6
f 255/4/6 256/4/6 269/4/6
f 256/4/6 257/4/6 269/4/6
f 269/4/6 258/4/6 270/4/6
f 270/4/6 258/4/6 271/4/6
f 263/3/6 264/3/6 272/3/6
f 271/4/6 258/4/6 272/4/6
f 258/3/6 263/3/6 272/3/6
f 272/3/6 264/3/6 273/3/6
f 273/3/6 264/3/6 274/3/6
f 265/3/6 266/3/6 275/3/6
f 266/3/6 267/3/6 275/3/6
f 275/3/6 267/3/6 276/3/6
f 276/3/6 267/3/6 277/3/6
f 277/3/6 267/3/6 278/3/6
f 267/4/6 268/4/6 279/4/6
f 278/3/6 267/3/6 279/3/6
f 269/3/6 270/3/6 280/3/6
f 279/4/6 268/4/6 280/4/6
f 268/3/6 269/3/6 280/3/6
f 270/4/6 271/4/6 281/4/6
f 280/3/6 270/3/6 281/3/6
f 281/4/6 271/4/6 282/4/6
f 273/8/6 274/8/6 283/8/6
f 271/3/6 272/3/6 283/3/6
f 272/3/6 273/3/6 283/3/6
f 274/3/6 264/3/6 284/3/6
f 283/8/6 274/8/6 284/8/6
f 284/3/6 264/3/6 285/3/6
f 285/3/6 264/3/6 286/3/6
f 265/3/6 275/3/6 287/3/6
f 275/8/6 276/8/6 287/8/6
f 276/3/6 277/3/6 288/3/6
f 287/8/6 276/8/6 288/8/6
f 277/4/6 278/4/6 289/4/6
f 288/3/6 277/3/6 289/3/6
f 279/3/6 280/3/6 290/3/6
f 289/4/6 278/4/6 290/4/6
f 278/3/6 279/3/6 290/3/6
f 281/3/6 282/3/6 290/3/6
f 280/3/6 281/3/6 290/3/6
f 282/4/6 271/4/6 291/4/6
f 290/3/6 282/3/6 291/3/6
f 271/3/6 283/3/6 292/3/6
f 291/4/6 271/4/6 292/4/6
f 284/3/6 285/3/6 292/3/6
f 283/3/6 284/3/6 292/3/6
f 292/3/6 285/3/6 293/3/6
f 285/4/6 286/4/6 294/4/6
f 293/3/6 285/3/6 294/3/6
f 290/3/6 291/3/6 295/3/6
f 288/3/6 289/3/6 295/3/6
f 287/3/6 288/3/6 295/3/6
f 291/3/6 292/3/6 295/3/6
f 292/3/6 293/3/6 295/3/6
f 289/3/6 290/3/6 295/3/6
f 293/4/6 294/4/6 296/4/6
f 295/3/6 293/3/6 296/3/6
f 118/3/6 265/3/6 297/3/6
f 71/3/6 118/3/6 297/3/6
f 287/3/6 295/3/6 297/3/6
f 265/3/6 287/3/6 297/3/6
f 295/4/6 296/4/6 298/4/6
f 297/3/6 295/3/6 298/3/6
f 296/4/6 294/4/6 299/4/6
f 298/4/6 296/4/6 299/4/6
f 294/4/6 286/4/6 299/4/6
