# MagicaVoxel @ Ephtracy

# material
mtllib block_small_2.mtl
usemtl palette

# normals
vn -1 0 0
vn 1 0 0
vn 0 0 1
vn 0 0 -1
vn 0 -1 0
vn 0 1 0

# texcoords
vt 0.970703 0.5
vt 0.974609 0.5
vt 0.978516 0.5
vt 0.982422 0.5
vt 0.986328 0.5
vt 0.990234 0.5

# verts
v -20 0 5
v -20 0 -5
v -20 10 5
v -20 10 -5
v -20 14 5
v -20 14 -5
v -20 17 5
v -20 17 -5
v -20 27 5
v -20 27 -5
v -20 37 5
v -20 37 -5
v -20 40 5
v -20 40 -5
v 20 0 5
v 20 0 -5
v 20 10 5
v 20 10 -5
v 20 14 5
v 20 14 -5
v 20 17 5
v 20 17 -5
v 20 27 5
v 20 27 -5
v 20 37 5
v 20 37 -5
v 20 39 -1
v 20 39 -3
v 20 39 -4
v 20 39 -5
v 20 40 5
v 20 40 -1
v 20 40 -3
v 20 40 -4
v 20 40 -5
v -20 0 5
v -20 10 5
v -20 14 5
v -20 17 5
v -20 27 5
v -20 37 5
v -20 40 5
v -16 39 5
v -16 40 5
v -11 39 5
v -11 40 5
v -8 38 5
v -8 40 5
v -7 38 5
v -7 39 5
v -3 39 5
v -3 40 5
v 12 39 5
v 12 40 5
v 14 39 5
v 14 40 5
v 20 0 5
v 20 10 5
v 20 14 5
v 20 17 5
v 20 27 5
v 20 37 5
v 20 40 5
v -20 0 -5
v -20 10 -5
v -20 14 -5
v -20 17 -5
v -20 27 -5
v -20 37 -5
v -20 40 -5
v 17 39 -5
v 17 40 -5
v 20 0 -5
v 20 10 -5
v 20 14 -5
v 20 17 -5
v 20 27 -5
v 20 37 -5
v 20 39 -5
v 20 40 -5
v -20 0 5
v 20 0 5
v -20 0 -5
v 20 0 -5
v -20 40 5
v -16 40 5
v -11 40 5
v -8 40 5
v -3 40 5
v 12 40 5
v 14 40 5
v 20 40 5
v -16 40 4
v -15 40 4
v -11 40 4
v -10 40 4
v -8 40 4
v -7 40 4
v -5 40 4
v -4 40 4
v 12 40 4
v 14 40 4
v 16 40 4
v -15 40 3
v -14 40 3
v -12 40 3
v -11 40 3
v -7 40 3
v -5 40 3
v 5 40 3
v 6 40 3
v 14 40 3
v 15 40 3
v -15 40 2
v -14 40 2
v -13 40 2
v -12 40 2
v -11 40 2
v -10 40 2
v -2 40 2
v 1 40 2
v 6 40 2
v 7 40 2
v 14 40 2
v 15 40 2
v -17 40 1
v -16 40 1
v -15 40 1
v -14 40 1
v -13 40 1
v -12 40 1
v -4 40 1
v -3 40 1
v -2 40 1
v -1 40 1
v 0 40 1
v 1 40 1
v 2 40 1
v 5 40 1
v 6 40 1
v 14 40 1
v 16 40 1
v -17 40 -0
v -16 40 -0
v -14 40 -0
v -12 40 -0
v -1 40 -0
v 0 40 -0
v 1 40 -0
v 6 40 -0
v 7 40 -0
v -17 40 -1
v -16 40 -1
v -6 40 -1
v -5 40 -1
v 1 40 -1
v 2 40 -1
v 19 40 -1
v 20 40 -1
v -6 40 -2
v -5 40 -2
v 18 40 -2
v 19 40 -2
v -17 40 -3
v -16 40 -3
v 0 40 -3
v 1 40 -3
v 19 40 -3
v 20 40 -3
v 17 40 -4
v 18 40 -4
v 19 40 -4
v 20 40 -4
v -20 40 -5
v 17 40 -5
v 20 40 -5

# faces
f 3/3/1 2/3/1 1/3/1
f 4/3/1 2/3/1 3/3/1
f 5/6/1 4/6/1 3/6/1
f 6/6/1 4/6/1 5/6/1
f 7/3/1 6/3/1 5/3/1
f 8/3/1 6/3/1 7/3/1
f 9/5/1 8/5/1 7/5/1
f 10/5/1 8/5/1 9/5/1
f 11/3/1 10/3/1 9/3/1
f 12/3/1 10/3/1 11/3/1
f 13/1/1 12/1/1 11/1/1
f 14/1/1 12/1/1 13/1/1
f 15/3/2 16/3/2 17/3/2
f 17/3/2 16/3/2 18/3/2
f 17/6/2 18/6/2 19/6/2
f 19/6/2 18/6/2 20/6/2
f 19/3/2 20/3/2 21/3/2
f 21/3/2 20/3/2 22/3/2
f 21/5/2 22/5/2 23/5/2
f 23/5/2 22/5/2 24/5/2
f 23/3/2 24/3/2 25/3/2
f 25/3/2 24/3/2 26/3/2
f 25/1/2 26/1/2 27/1/2
f 27/1/2 26/1/2 28/1/2
f 28/1/2 26/1/2 29/1/2
f 29/1/2 26/1/2 30/1/2
f 25/1/2 27/1/2 31/1/2
f 27/2/2 28/2/2 32/2/2
f 31/1/2 27/1/2 32/1/2
f 28/1/2 29/1/2 33/1/2
f 32/2/2 28/2/2 33/2/2
f 29/2/2 30/2/2 34/2/2
f 33/1/2 29/1/2 34/1/2
f 34/2/2 30/2/2 35/2/2
f 43/1/3 42/1/3 41/1/3
f 44/1/3 42/1/3 43/1/3
f 45/1/3 43/1/3 41/1/3
f 45/4/3 44/4/3 43/4/3
f 46/4/3 44/4/3 45/4/3
f 47/1/3 45/1/3 41/1/3
f 47/1/3 46/1/3 45/1/3
f 48/1/3 46/1/3 47/1/3
f 49/1/3 47/1/3 41/1/3
f 49/4/3 48/4/3 47/4/3
f 50/4/3 48/4/3 49/4/3
f 51/1/3 50/1/3 49/1/3
f 51/4/3 48/4/3 50/4/3
f 52/4/3 48/4/3 51/4/3
f 53/1/3 51/1/3 49/1/3
f 53/1/3 52/1/3 51/1/3
f 54/1/3 52/1/3 53/1/3
f 55/1/3 53/1/3 49/1/3
f 55/4/3 54/4/3 53/4/3
f 56/4/3 54/4/3 55/4/3
f 57/3/3 37/3/3 36/3/3
f 58/6/3 38/6/3 37/6/3
f 58/3/3 37/3/3 57/3/3
f 59/3/3 39/3/3 38/3/3
f 59/6/3 38/6/3 58/6/3
f 60/5/3 40/5/3 39/5/3
f 60/3/3 39/3/3 59/3/3
f 61/3/3 41/3/3 40/3/3
f 61/5/3 40/5/3 60/5/3
f 62/1/3 49/1/3 41/1/3
f 62/3/3 41/3/3 61/3/3
f 62/1/3 55/1/3 49/1/3
f 62/1/3 56/1/3 55/1/3
f 63/1/3 56/1/3 62/1/3
f 69/1/4 70/1/4 71/1/4
f 71/1/4 70/1/4 72/1/4
f 64/3/4 65/3/4 73/3/4
f 65/6/4 66/6/4 74/6/4
f 73/3/4 65/3/4 74/3/4
f 66/3/4 67/3/4 75/3/4
f 74/6/4 66/6/4 75/6/4
f 67/5/4 68/5/4 76/5/4
f 75/3/4 67/3/4 76/3/4
f 68/3/4 69/3/4 77/3/4
f 76/5/4 68/5/4 77/5/4
f 69/1/4 71/1/4 78/1/4
f 77/3/4 69/3/4 78/3/4
f 71/2/4 72/2/4 79/2/4
f 78/1/4 71/1/4 79/1/4
f 79/2/4 72/2/4 80/2/4
f 83/3/5 82/3/5 81/3/5
f 84/3/5 82/3/5 83/3/5
f 85/1/6 86/1/6 93/1/6
f 86/4/6 87/4/6 93/4/6
f 93/4/6 87/4/6 94/4/6
f 87/1/6 88/1/6 95/1/6
f 94/4/6 87/4/6 95/4/6
f 95/1/6 88/1/6 96/1/6
f 88/4/6 89/4/6 97/4/6
f 96/1/6 88/1/6 97/1/6
f 97/4/6 89/4/6 98/4/6
f 98/4/6 89/4/6 99/4/6
f 99/4/6 89/4/6 100/4/6
f 90/4/6 91/4/6 101/4/6
f 89/1/6 90/1/6 101/1/6
f 91/1/6 92/1/6 102/1/6
f 101/4/6 91/4/6 102/4/6
f 102/1/6 92/1/6 103/1/6
f 93/1/6 94/1/6 104/1/6
f 95/4/6 96/4/6 104/4/6
f 94/4/6 95/4/6 104/4/6
f 104/4/6 96/4/6 105/4/6
f 105/4/6 96/4/6 106/4/6
f 106/4/6 96/4/6 107/4/6
f 96/1/6 97/1/6 108/1/6
f 97/1/6 98/1/6 108/1/6
f 98/4/6 99/4/6 108/4/6
f 99/1/6 100/1/6 109/1/6
f 108/4/6 99/4/6 109/4/6
f 89/1/6 101/1/6 110/1/6
f 101/1/6 102/1/6 110/1/6
f 110/1/6 102/1/6 111/1/6
f 102/4/6 103/4/6 112/4/6
f 111/1/6 102/1/6 112/1/6
f 112/4/6 103/4/6 113/4/6
f 93/1/6 104/1/6 114/1/6
f 104/1/6 105/1/6 114/1/6
f 105/4/6 106/4/6 115/4/6
f 114/1/6 105/1/6 115/1/6
f 115/4/6 106/4/6 116/4/6
f 106/1/6 107/1/6 117/1/6
f 116/4/6 106/4/6 117/4/6
f 107/4/6 96/4/6 118/4/6
f 117/1/6 107/1/6 118/1/6
f 96/1/6 108/1/6 119/1/6
f 118/4/6 96/4/6 119/4/6
f 108/1/6 109/1/6 119/1/6
f 89/1/6 110/1/6 120/1/6
f 120/1/6 110/1/6 121/1/6
f 110/2/6 111/2/6 122/2/6
f 112/1/6 113/1/6 122/1/6
f 111/1/6 112/1/6 122/1/6
f 122/1/6 113/1/6 123/1/6
f 123/1/6 113/1/6 124/1/6
f 113/4/6 103/4/6 125/4/6
f 124/1/6 113/1/6 125/1/6
f 85/1/6 93/1/6 126/1/6
f 93/1/6 114/1/6 126/1/6
f 126/1/6 114/1/6 127/1/6
f 114/4/6 115/4/6 128/4/6
f 127/1/6 114/1/6 128/1/6
f 115/4/6 116/4/6 128/4/6
f 128/4/6 116/4/6 129/4/6
f 117/1/6 118/1/6 130/1/6
f 129/4/6 116/4/6 130/4/6
f 116/1/6 117/1/6 130/1/6
f 118/1/6 119/1/6 130/1/6
f 130/1/6 119/1/6 131/1/6
f 109/1/6 100/1/6 132/1/6
f 131/1/6 119/1/6 132/1/6
f 100/4/6 89/4/6 132/4/6
f 119/1/6 109/1/6 132/1/6
f 89/1/6 120/1/6 133/1/6
f 132/4/6 89/4/6 133/4/6
f 120/4/6 121/4/6 134/4/6
f 133/1/6 120/1/6 134/1/6
f 134/4/6 121/4/6 135/4/6
f 135/4/6 121/4/6 136/4/6
f 121/1/6 110/1/6 137/1/6
f 136/4/6 121/4/6 137/4/6
f 137/1/6 110/1/6 138/1/6
f 110/2/6 122/2/6 139/2/6
f 138/1/6 110/1/6 139/1/6
f 122/2/6 123/2/6 139/2/6
f 139/2/6 123/2/6 140/2/6
f 124/4/6 125/4/6 141/4/6
f 123/1/6 124/1/6 141/1/6
f 103/1/6 92/1/6 142/1/6
f 141/4/6 125/4/6 142/4/6
f 125/4/6 103/4/6 142/4/6
f 126/4/6 127/4/6 143/4/6
f 85/1/6 126/1/6 143/1/6
f 128/1/6 129/1/6 144/1/6
f 143/4/6 127/4/6 144/4/6
f 127/1/6 128/1/6 144/1/6
f 130/4/6 131/4/6 145/4/6
f 144/1/6 129/1/6 145/1/6
f 129/4/6 130/4/6 145/4/6
f 133/1/6 134/1/6 146/1/6
f 145/4/6 131/4/6 146/4/6
f 134/1/6 135/1/6 146/1/6
f 132/1/6 133/1/6 146/1/6
f 131/1/6 132/1/6 146/1/6
f 135/4/6 136/4/6 147/4/6
f 146/1/6 135/1/6 147/1/6
f 136/1/6 137/1/6 148/1/6
f 147/4/6 136/4/6 148/4/6
f 137/4/6 138/4/6 149/4/6
f 148/1/6 137/1/6 149/1/6
f 138/1/6 139/1/6 150/1/6
f 140/2/6 123/2/6 150/2/6
f 139/1/6 140/1/6 150/1/6
f 123/1/6 141/1/6 151/1/6
f 150/2/6 123/2/6 151/2/6
f 141/1/6 142/1/6 151/1/6
f 143/1/6 144/1/6 152/1/6
f 144/1/6 145/1/6 152/1/6
f 145/1/6 146/1/6 152/1/6
f 85/1/6 143/1/6 152/1/6
f 147/1/6 148/1/6 152/1/6
f 146/1/6 147/1/6 152/1/6
f 152/1/6 148/1/6 153/1/6
f 153/1/6 148/1/6 154/1/6
f 154/1/6 148/1/6 155/1/6
f 148/4/6 149/4/6 156/4/6
f 149/4/6 138/4/6 156/4/6
f 150/1/6 151/1/6 157/1/6
f 156/4/6 138/4/6 157/4/6
f 138/1/6 150/1/6 157/1/6
f 151/1/6 142/1/6 158/1/6
f 157/1/6 151/1/6 158/1/6
f 142/1/6 92/1/6 158/1/6
f 158/1/6 92/1/6 159/1/6
f 153/1/6 154/1/6 160/1/6
f 154/2/6 155/2/6 160/2/6
f 155/1/6 148/1/6 161/1/6
f 160/2/6 155/2/6 161/2/6
f 156/1/6 157/1/6 162/1/6
f 157/1/6 158/1/6 162/1/6
f 158/2/6 159/2/6 163/2/6
f 162/1/6 158/1/6 163/1/6
f 152/4/6 153/4/6 164/4/6
f 85/1/6 152/1/6 164/1/6
f 153/1/6 160/1/6 165/1/6
f 164/4/6 153/4/6 165/4/6
f 160/1/6 161/1/6 165/1/6
f 161/1/6 148/1/6 166/1/6
f 165/1/6 161/1/6 166/1/6
f 148/4/6 156/4/6 166/4/6
f 156/1/6 162/1/6 167/1/6
f 166/4/6 156/4/6 167/4/6
f 162/2/6 163/2/6 168/2/6
f 163/2/6 159/2/6 168/2/6
f 168/2/6 159/2/6 169/2/6
f 164/1/6 165/1/6 170/1/6
f 167/1/6 162/1/6 170/1/6
f 166/1/6 167/1/6 170/1/6
f 165/1/6 166/1/6 170/1/6
f 162/2/6 168/2/6 171/2/6
f 170/1/6 162/1/6 171/1/6
f 168/1/6 169/1/6 172/1/6
f 171/2/6 168/2/6 172/2/6
f 172/1/6 169/1/6 173/1/6
f 85/1/6 164/1/6 174/1/6
f 164/1/6 170/1/6 174/1/6
f 170/2/6 171/2/6 175/2/6
f 174/1/6 170/1/6 175/1/6
f 172/2/6 173/2/6 175/2/6
f 171/2/6 172/2/6 175/2/6
f 175/2/6 173/2/6 176/2/6
