# MagicaVoxel @ Ephtracy

# material
mtllib block_nar_1.mtl
usemtl palette

# normals
vn -1 0 0
vn 1 0 0
vn 0 0 1
vn 0 0 -1
vn 0 -1 0
vn 0 1 0

# texcoords
vt 0.970703 0.5
vt 0.974609 0.5
vt 0.978516 0.5
vt 0.986328 0.5
vt 0.990234 0.5

# verts
v -20 0 10
v -20 0 -10
v -20 10 10
v -20 10 -10
v -20 14 10
v -20 14 -10
v -20 17 10
v -20 17 -10
v -20 27 10
v -20 27 -10
v -20 37 10
v -20 37 -10
v -20 40 10
v -20 40 -10
v 20 0 10
v 20 0 -10
v 20 10 10
v 20 10 -10
v 20 14 10
v 20 14 -10
v 20 17 10
v 20 17 -10
v 20 27 10
v 20 27 -10
v 20 37 10
v 20 37 -10
v 20 40 10
v 20 40 -10
v -20 0 10
v -20 10 10
v -20 14 10
v -20 17 10
v -20 27 10
v -20 37 10
v -20 40 10
v 20 0 10
v 20 10 10
v 20 14 10
v 20 17 10
v 20 27 10
v 20 37 10
v 20 40 10
v -20 0 -10
v -20 10 -10
v -20 14 -10
v -20 17 -10
v -20 27 -10
v -20 37 -10
v -20 40 -10
v 20 0 -10
v 20 10 -10
v 20 14 -10
v 20 17 -10
v 20 27 -10
v 20 37 -10
v 20 40 -10
v -20 0 10
v 20 0 10
v -20 0 -10
v 20 0 -10
v -20 40 10
v 20 40 10
v -12 40 9
v -11 40 9
v 11 40 9
v 12 40 9
v 13 40 9
v 14 40 9
v -12 40 8
v -11 40 8
v -10 40 8
v 10 40 8
v 11 40 8
v 12 40 8
v 13 40 8
v 14 40 8
v -8 40 7
v -7 40 7
v -4 40 7
v -3 40 7
v 10 40 7
v 11 40 7
v 13 40 7
v 14 40 7
v -9 40 6
v -8 40 6
v -7 40 6
v -5 40 6
v -4 40 6
v -3 40 6
v 11 40 6
v 14 40 6
v 16 40 6
v -15 40 5
v -14 40 5
v -11 40 5
v -10 40 5
v -9 40 5
v -8 40 5
v -7 40 5
v 14 40 5
v 16 40 5
v -18 40 4
v -16 40 4
v -15 40 4
v -14 40 4
v -10 40 4
v -9 40 4
v -8 40 4
v -7 40 4
v 10 40 4
v 11 40 4
v -18 40 3
v -17 40 3
v -7 40 3
v -5 40 3
v -16 40 2
v -15 40 2
v -10 40 2
v -9 40 2
v -17 40 1
v -16 40 1
v -15 40 1
v -13 40 1
v -12 40 1
v -11 40 1
v 8 40 1
v 10 40 1
v -14 40 -0
v -13 40 -0
v -12 40 -0
v 11 40 -0
v 12 40 -0
v -14 40 -1
v -13 40 -1
v -12 40 -1
v -11 40 -1
v -10 40 -1
v -8 40 -1
v -7 40 -1
v 8 40 -1
v 9 40 -1
v 11 40 -1
v 12 40 -1
v -15 40 -2
v -14 40 -2
v -11 40 -2
v -10 40 -2
v 9 40 -2
v 11 40 -2
v 12 40 -2
v 13 40 -2
v 16 40 -2
v 17 40 -2
v -15 40 -3
v -14 40 -3
v -13 40 -3
v -12 40 -3
v -11 40 -3
v -10 40 -3
v -8 40 -3
v 8 40 -3
v 9 40 -3
v 12 40 -3
v 13 40 -3
v 17 40 -3
v 18 40 -3
v -17 40 -4
v -16 40 -4
v 9 40 -4
v 10 40 -4
v 16 40 -4
v 18 40 -4
v -15 40 -5
v -14 40 -5
v 8 40 -5
v 9 40 -5
v 10 40 -5
v 11 40 -5
v -16 40 -6
v -15 40 -6
v 8 40 -6
v 9 40 -6
v -17 40 -7
v -16 40 -7
v 8 40 -7
v 11 40 -7
v -20 40 -10
v 20 40 -10

# faces
f 3/3/1 2/3/1 1/3/1
f 4/3/1 2/3/1 3/3/1
f 5/5/1 4/5/1 3/5/1
f 6/5/1 4/5/1 5/5/1
f 7/3/1 6/3/1 5/3/1
f 8/3/1 6/3/1 7/3/1
f 9/4/1 8/4/1 7/4/1
f 10/4/1 8/4/1 9/4/1
f 11/3/1 10/3/1 9/3/1
f 12/3/1 10/3/1 11/3/1
f 13/1/1 12/1/1 11/1/1
f 14/1/1 12/1/1 13/1/1
f 15/3/2 16/3/2 17/3/2
f 17/3/2 16/3/2 18/3/2
f 17/5/2 18/5/2 19/5/2
f 19/5/2 18/5/2 20/5/2
f 19/3/2 20/3/2 21/3/2
f 21/3/2 20/3/2 22/3/2
f 21/4/2 22/4/2 23/4/2
f 23/4/2 22/4/2 24/4/2
f 23/3/2 24/3/2 25/3/2
f 25/3/2 24/3/2 26/3/2
f 25/1/2 26/1/2 27/1/2
f 27/1/2 26/1/2 28/1/2
f 36/3/3 30/3/3 29/3/3
f 37/5/3 31/5/3 30/5/3
f 37/3/3 30/3/3 36/3/3
f 38/3/3 32/3/3 31/3/3
f 38/5/3 31/5/3 37/5/3
f 39/4/3 33/4/3 32/4/3
f 39/3/3 32/3/3 38/3/3
f 40/3/3 34/3/3 33/3/3
f 40/4/3 33/4/3 39/4/3
f 41/1/3 35/1/3 34/1/3
f 41/3/3 34/3/3 40/3/3
f 42/1/3 35/1/3 41/1/3
f 43/3/4 44/3/4 50/3/4
f 44/5/4 45/5/4 51/5/4
f 50/3/4 44/3/4 51/3/4
f 45/3/4 46/3/4 52/3/4
f 51/5/4 45/5/4 52/5/4
f 46/4/4 47/4/4 53/4/4
f 52/3/4 46/3/4 53/3/4
f 47/3/4 48/3/4 54/3/4
f 53/4/4 47/4/4 54/4/4
f 48/1/4 49/1/4 55/1/4
f 54/3/4 48/3/4 55/3/4
f 55/1/4 49/1/4 56/1/4
f 59/3/5 58/3/5 57/3/5
f 60/3/5 58/3/5 59/3/5
f 61/1/6 62/1/6 63/1/6
f 63/1/6 62/1/6 64/1/6
f 64/1/6 62/1/6 65/1/6
f 65/1/6 62/1/6 66/1/6
f 66/1/6 62/1/6 67/1/6
f 67/1/6 62/1/6 68/1/6
f 61/1/6 63/1/6 69/1/6
f 63/2/6 64/2/6 69/2/6
f 64/1/6 65/1/6 70/1/6
f 69/2/6 64/2/6 70/2/6
f 70/1/6 65/1/6 71/1/6
f 71/1/6 65/1/6 72/1/6
f 65/2/6 66/2/6 73/2/6
f 72/1/6 65/1/6 73/1/6
f 66/1/6 67/1/6 74/1/6
f 73/2/6 66/2/6 74/2/6
f 67/2/6 68/2/6 75/2/6
f 74/1/6 67/1/6 75/1/6
f 68/1/6 62/1/6 76/1/6
f 75/2/6 68/2/6 76/2/6
f 71/1/6 72/1/6 77/1/6
f 77/1/6 72/1/6 78/1/6
f 78/1/6 72/1/6 79/1/6
f 79/1/6 72/1/6 80/1/6
f 74/2/6 75/2/6 81/2/6
f 80/1/6 72/1/6 81/1/6
f 73/2/6 74/2/6 81/2/6
f 72/2/6 73/2/6 81/2/6
f 81/2/6 75/2/6 82/2/6
f 75/1/6 76/1/6 83/1/6
f 82/2/6 75/2/6 83/2/6
f 76/1/6 62/1/6 84/1/6
f 83/1/6 76/1/6 84/1/6
f 71/1/6 77/1/6 85/1/6
f 77/2/6 78/2/6 86/2/6
f 85/1/6 77/1/6 86/1/6
f 78/1/6 79/1/6 87/1/6
f 86/2/6 78/2/6 87/2/6
f 87/1/6 79/1/6 88/1/6
f 79/2/6 80/2/6 89/2/6
f 88/1/6 79/1/6 89/1/6
f 81/1/6 82/1/6 90/1/6
f 89/2/6 80/2/6 90/2/6
f 80/1/6 81/1/6 90/1/6
f 82/2/6 83/2/6 91/2/6
f 90/1/6 82/1/6 91/1/6
f 83/2/6 84/2/6 91/2/6
f 84/1/6 62/1/6 92/1/6
f 91/2/6 84/2/6 92/2/6
f 92/1/6 62/1/6 93/1/6
f 61/1/6 69/1/6 94/1/6
f 69/1/6 70/1/6 94/1/6
f 94/1/6 70/1/6 95/1/6
f 70/2/6 71/2/6 96/2/6
f 95/1/6 70/1/6 96/1/6
f 71/1/6 85/1/6 97/1/6
f 96/2/6 71/2/6 97/2/6
f 87/2/6 88/2/6 98/2/6
f 97/1/6 85/1/6 98/1/6
f 85/2/6 86/2/6 98/2/6
f 86/2/6 87/2/6 98/2/6
f 98/2/6 88/2/6 99/2/6
f 99/2/6 88/2/6 100/2/6
f 89/1/6 90/1/6 101/1/6
f 92/2/6 93/2/6 101/2/6
f 88/1/6 89/1/6 101/1/6
f 90/1/6 91/1/6 101/1/6
f 91/1/6 92/1/6 101/1/6
f 93/1/6 62/1/6 102/1/6
f 101/2/6 93/2/6 102/2/6
f 61/1/6 94/1/6 103/1/6
f 103/1/6 94/1/6 104/1/6
f 94/2/6 95/2/6 105/2/6
f 104/1/6 94/1/6 105/1/6
f 96/1/6 97/1/6 106/1/6
f 105/2/6 95/2/6 106/2/6
f 95/1/6 96/1/6 106/1/6
f 98/2/6 99/2/6 107/2/6
f 106/1/6 97/1/6 107/1/6
f 97/2/6 98/2/6 107/2/6
f 107/2/6 99/2/6 108/2/6
f 99/1/6 100/1/6 109/1/6
f 108/2/6 99/2/6 109/2/6
f 100/2/6 88/2/6 110/2/6
f 109/1/6 100/1/6 110/1/6
f 88/1/6 101/1/6 111/1/6
f 101/1/6 102/1/6 111/1/6
f 111/1/6 102/1/6 112/1/6
f 61/1/6 103/1/6 113/1/6
f 103/2/6 104/2/6 113/2/6
f 113/2/6 104/2/6 114/2/6
f 110/2/6 88/2/6 115/2/6
f 108/2/6 109/2/6 115/2/6
f 109/2/6 110/2/6 115/2/6
f 88/1/6 111/1/6 116/1/6
f 115/2/6 88/2/6 116/2/6
f 104/1/6 105/1/6 117/1/6
f 114/2/6 104/2/6 117/2/6
f 107/1/6 108/1/6 117/1/6
f 105/1/6 106/1/6 117/1/6
f 106/1/6 107/1/6 117/1/6
f 117/1/6 108/1/6 118/1/6
f 118/1/6 108/1/6 119/1/6
f 108/2/6 115/2/6 120/2/6
f 119/1/6 108/1/6 120/1/6
f 113/1/6 114/1/6 121/1/6
f 114/2/6 117/2/6 121/2/6
f 117/2/6 118/2/6 121/2/6
f 121/2/6 118/2/6 122/2/6
f 118/1/6 119/1/6 123/1/6
f 122/2/6 118/2/6 123/2/6
f 123/1/6 119/1/6 124/1/6
f 124/1/6 119/1/6 125/1/6
f 125/1/6 119/1/6 126/1/6
f 116/1/6 111/1/6 127/1/6
f 115/1/6 116/1/6 127/1/6
f 111/2/6 112/2/6 128/2/6
f 127/1/6 111/1/6 128/1/6
f 122/2/6 123/2/6 129/2/6
f 123/2/6 124/2/6 129/2/6
f 124/1/6 125/1/6 130/1/6
f 129/2/6 124/2/6 130/2/6
f 125/2/6 126/2/6 131/2/6
f 130/1/6 125/1/6 131/1/6
f 112/1/6 102/1/6 132/1/6
f 128/2/6 112/2/6 132/2/6
f 127/2/6 128/2/6 132/2/6
f 132/1/6 102/1/6 133/1/6
f 129/1/6 130/1/6 134/1/6
f 122/2/6 129/2/6 134/2/6
f 130/2/6 131/2/6 135/2/6
f 134/1/6 130/1/6 135/1/6
f 131/2/6 126/2/6 136/2/6
f 135/2/6 131/2/6 136/2/6
f 126/1/6 119/1/6 137/1/6
f 136/2/6 126/2/6 137/2/6
f 119/2/6 120/2/6 138/2/6
f 137/1/6 119/1/6 138/1/6
f 120/2/6 115/2/6 139/2/6
f 138/2/6 120/2/6 139/2/6
f 115/1/6 127/1/6 140/1/6
f 139/2/6 115/2/6 140/2/6
f 132/2/6 133/2/6 141/2/6
f 140/1/6 127/1/6 141/1/6
f 127/2/6 132/2/6 141/2/6
f 141/2/6 133/2/6 142/2/6
f 142/2/6 133/2/6 143/2/6
f 133/1/6 102/1/6 144/1/6
f 143/2/6 133/2/6 144/2/6
f 134/2/6 135/2/6 145/2/6
f 122/2/6 134/2/6 145/2/6
f 145/2/6 135/2/6 146/2/6
f 137/2/6 138/2/6 147/2/6
f 138/2/6 139/2/6 147/2/6
f 136/2/6 137/2/6 147/2/6
f 147/2/6 139/2/6 148/2/6
f 142/2/6 143/2/6 149/2/6
f 139/1/6 140/1/6 149/1/6
f 140/1/6 141/1/6 149/1/6
f 141/1/6 142/1/6 149/1/6
f 143/1/6 144/1/6 150/1/6
f 149/2/6 143/2/6 150/2/6
f 144/1/6 102/1/6 151/1/6
f 150/1/6 144/1/6 151/1/6
f 151/1/6 102/1/6 152/1/6
f 102/1/6 62/1/6 153/1/6
f 152/1/6 102/1/6 153/1/6
f 153/1/6 62/1/6 154/1/6
f 145/1/6 146/1/6 155/1/6
f 122/2/6 145/2/6 155/2/6
f 146/2/6 135/2/6 156/2/6
f 155/1/6 146/1/6 156/1/6
f 135/1/6 136/1/6 157/1/6
f 156/2/6 135/2/6 157/2/6
f 136/2/6 147/2/6 158/2/6
f 157/1/6 136/1/6 158/1/6
f 147/1/6 148/1/6 159/1/6
f 158/2/6 147/2/6 159/2/6
f 148/2/6 139/2/6 160/2/6
f 159/1/6 148/1/6 160/1/6
f 149/1/6 150/1/6 161/1/6
f 160/2/6 139/2/6 161/2/6
f 139/1/6 149/1/6 161/1/6
f 150/1/6 151/1/6 161/1/6
f 161/1/6 151/1/6 162/1/6
f 162/1/6 151/1/6 163/1/6
f 151/2/6 152/2/6 164/2/6
f 163/1/6 151/1/6 164/1/6
f 152/1/6 153/1/6 165/1/6
f 164/2/6 152/2/6 165/2/6
f 154/1/6 62/1/6 166/1/6
f 153/2/6 154/2/6 166/2/6
f 166/1/6 62/1/6 167/1/6
f 121/1/6 122/1/6 168/1/6
f 113/1/6 121/1/6 168/1/6
f 155/2/6 156/2/6 169/2/6
f 168/1/6 122/1/6 169/1/6
f 122/2/6 155/2/6 169/2/6
f 162/2/6 163/2/6 170/2/6
f 164/1/6 165/1/6 170/1/6
f 163/1/6 164/1/6 170/1/6
f 170/1/6 165/1/6 171/1/6
f 153/2/6 166/2/6 172/2/6
f 171/1/6 165/1/6 172/1/6
f 165/1/6 153/1/6 172/1/6
f 166/2/6 167/2/6 172/2/6
f 167/1/6 62/1/6 173/1/6
f 172/2/6 167/2/6 173/2/6
f 169/2/6 156/2/6 174/2/6
f 168/2/6 169/2/6 174/2/6
f 158/1/6 159/1/6 175/1/6
f 174/2/6 156/2/6 175/2/6
f 159/1/6 160/1/6 175/1/6
f 156/1/6 157/1/6 175/1/6
f 157/1/6 158/1/6 175/1/6
f 161/1/6 162/1/6 175/1/6
f 160/1/6 161/1/6 175/1/6
f 170/2/6 171/2/6 176/2/6
f 175/1/6 162/1/6 176/1/6
f 162/2/6 170/2/6 176/2/6
f 176/2/6 171/2/6 177/2/6
f 172/1/6 173/1/6 178/1/6
f 177/2/6 171/2/6 178/2/6
f 171/1/6 172/1/6 178/1/6
f 178/1/6 173/1/6 179/1/6
f 168/2/6 174/2/6 180/2/6
f 174/1/6 175/1/6 181/1/6
f 180/2/6 174/2/6 181/2/6
f 176/1/6 177/1/6 181/1/6
f 175/1/6 176/1/6 181/1/6
f 181/1/6 177/1/6 182/1/6
f 178/2/6 179/2/6 183/2/6
f 182/1/6 177/1/6 183/1/6
f 177/2/6 178/2/6 183/2/6
f 113/1/6 168/1/6 184/1/6
f 168/2/6 180/2/6 184/2/6
f 181/1/6 182/1/6 185/1/6
f 184/2/6 180/2/6 185/2/6
f 180/1/6 181/1/6 185/1/6
f 182/2/6 183/2/6 186/2/6
f 185/1/6 182/1/6 186/1/6
f 183/2/6 179/2/6 187/2/6
f 186/2/6 183/2/6 187/2/6
f 179/1/6 173/1/6 187/1/6
f 185/1/6 186/1/6 188/1/6
f 61/1/6 113/1/6 188/1/6
f 186/1/6 187/1/6 188/1/6
f 113/1/6 184/1/6 188/1/6
f 184/1/6 185/1/6 188/1/6
f 187/1/6 173/1/6 189/1/6
f 188/1/6 187/1/6 189/1/6
f 173/1/6 62/1/6 189/1/6
