# MagicaVoxel @ Ephtracy

# material
mtllib block_nar_3.mtl
usemtl palette

# normals
vn -1 0 0
vn 1 0 0
vn 0 0 1
vn 0 0 -1
vn 0 -1 0
vn 0 1 0

# texcoords
vt 0.943359 0.5
vt 0.970703 0.5
vt 0.974609 0.5
vt 0.978516 0.5
vt 0.982422 0.5
vt 0.986328 0.5
vt 0.990234 0.5
vt 0.994141 0.5

# verts
v -20 0 10
v -20 0 -10
v -20 10 10
v -20 10 -10
v -20 14 10
v -20 14 -10
v -20 17 10
v -20 17 -10
v -20 27 10
v -20 27 -10
v -20 37 10
v -20 37 -10
v -20 40 10
v -20 40 -10
v 20 0 10
v 20 0 -10
v 20 10 10
v 20 10 -10
v 20 14 10
v 20 14 -10
v 20 17 10
v 20 17 -10
v 20 27 10
v 20 27 -10
v 20 37 10
v 20 37 -10
v 20 39 -2
v 20 39 -5
v 20 40 10
v 20 40 -2
v 20 40 -5
v 20 40 -10
v -20 0 10
v -20 10 10
v -20 14 10
v -20 17 10
v -20 27 10
v -20 37 10
v -20 40 10
v -6 39 10
v -6 40 10
v -4 39 10
v -4 40 10
v 20 0 10
v 20 10 10
v 20 14 10
v 20 17 10
v 20 27 10
v 20 37 10
v 20 40 10
v -20 0 -10
v -20 10 -10
v -20 14 -10
v -20 17 -10
v -20 27 -10
v -20 37 -10
v -20 40 -10
v 16 39 -10
v 16 40 -10
v 17 39 -10
v 17 40 -10
v 20 0 -10
v 20 10 -10
v 20 14 -10
v 20 17 -10
v 20 27 -10
v 20 37 -10
v 20 40 -10
v -20 0 10
v 20 0 10
v -20 0 -10
v 20 0 -10
v -20 40 10
v -6 40 10
v -4 40 10
v 20 40 10
v -12 40 9
v -11 40 9
v -7 40 9
v -6 40 9
v -4 40 9
v -3 40 9
v -12 40 8
v -11 40 8
v -9 40 8
v -8 40 8
v -4 40 8
v -3 40 8
v 13 40 8
v 16 40 8
v -8 40 7
v -7 40 7
v -6 40 7
v -4 40 7
v -2 40 7
v 0 40 7
v 1 40 7
v 9 40 7
v 10 40 7
v -16 40 6
v -14 40 6
v -9 40 6
v -8 40 6
v -7 40 6
v -5 40 6
v -4 40 6
v -3 40 6
v -2 40 6
v 0 40 6
v 1 40 6
v 4 40 6
v 9 40 6
v 10 40 6
v 12 40 6
v 13 40 6
v -18 40 5
v -16 40 5
v -15 40 5
v -14 40 5
v -8 40 5
v -6 40 5
v -5 40 5
v -3 40 5
v -1 40 5
v 4 40 5
v 15 40 5
v 16 40 5
v -15 40 4
v -14 40 4
v -13 40 4
v -6 40 4
v -5 40 4
v 9 40 4
v 12 40 4
v 15 40 4
v -18 40 3
v -17 40 3
v -15 40 3
v -14 40 3
v -13 40 3
v -12 40 3
v -11 40 3
v -10 40 3
v -5 40 3
v -4 40 3
v -1 40 3
v 0 40 3
v 8 40 3
v 9 40 3
v 11 40 3
v 12 40 3
v 14 40 3
v -17 40 2
v -15 40 2
v -14 40 2
v -11 40 2
v -10 40 2
v -6 40 2
v -4 40 2
v -3 40 2
v 8 40 2
v 11 40 2
v 12 40 2
v 14 40 2
v -12 40 1
v -10 40 1
v -5 40 1
v -4 40 1
v -3 40 1
v -2 40 1
v -1 40 1
v 0 40 1
v -15 40 -0
v -14 40 -0
v -9 40 -0
v -7 40 -0
v -6 40 -0
v -5 40 -0
v 6 40 -0
v 7 40 -0
v 10 40 -0
v 11 40 -0
v 12 40 -0
v -15 40 -1
v -12 40 -1
v -10 40 -1
v -9 40 -1
v -7 40 -1
v -6 40 -1
v -3 40 -1
v -2 40 -1
v -1 40 -1
v 6 40 -1
v 7 40 -1
v 10 40 -1
v 11 40 -1
v -13 40 -2
v -12 40 -2
v -10 40 -2
v -9 40 -2
v -7 40 -2
v -6 40 -2
v -5 40 -2
v -4 40 -2
v -3 40 -2
v -2 40 -2
v 1 40 -2
v 2 40 -2
v 8 40 -2
v 9 40 -2
v 19 40 -2
v 20 40 -2
v -13 40 -3
v -10 40 -3
v -8 40 -3
v -7 40 -3
v -5 40 -3
v -4 40 -3
v 1 40 -3
v 2 40 -3
v 8 40 -3
v 9 40 -3
v -11 40 -4
v -10 40 -4
v -9 40 -4
v -8 40 -4
v -6 40 -4
v -5 40 -4
v 9 40 -4
v 10 40 -4
v 16 40 -4
v 17 40 -4
v -18 40 -5
v -17 40 -5
v -12 40 -5
v -11 40 -5
v -10 40 -5
v -6 40 -5
v -5 40 -5
v 9 40 -5
v 10 40 -5
v 17 40 -5
v 19 40 -5
v 20 40 -5
v -18 40 -6
v -17 40 -6
v -12 40 -6
v -11 40 -6
v -3 40 -6
v -2 40 -6
v 15 40 -6
v 16 40 -6
v 18 40 -6
v 19 40 -6
v -3 40 -7
v -2 40 -7
v 13 40 -7
v 15 40 -7
v 12 40 -8
v 13 40 -8
v 14 40 -8
v 15 40 -8
v 16 40 -8
v 17 40 -8
v 12 40 -9
v 14 40 -9
v 15 40 -9
v 16 40 -9
v 17 40 -9
v 18 40 -9
v -20 40 -10
v 16 40 -10
v 17 40 -10
v 20 40 -10

# faces
f 3/4/1 2/4/1 1/4/1
f 4/4/1 2/4/1 3/4/1
f 5/7/1 4/7/1 3/7/1
f 6/7/1 4/7/1 5/7/1
f 7/4/1 6/4/1 5/4/1
f 8/4/1 6/4/1 7/4/1
f 9/6/1 8/6/1 7/6/1
f 10/6/1 8/6/1 9/6/1
f 11/4/1 10/4/1 9/4/1
f 12/4/1 10/4/1 11/4/1
f 13/2/1 12/2/1 11/2/1
f 14/2/1 12/2/1 13/2/1
f 15/4/2 16/4/2 17/4/2
f 17/4/2 16/4/2 18/4/2
f 17/7/2 18/7/2 19/7/2
f 19/7/2 18/7/2 20/7/2
f 19/4/2 20/4/2 21/4/2
f 21/4/2 20/4/2 22/4/2
f 21/6/2 22/6/2 23/6/2
f 23/6/2 22/6/2 24/6/2
f 23/4/2 24/4/2 25/4/2
f 25/4/2 24/4/2 26/4/2
f 25/2/2 26/2/2 27/2/2
f 27/2/2 26/2/2 28/2/2
f 25/2/2 27/2/2 29/2/2
f 27/3/2 28/3/2 30/3/2
f 29/2/2 27/2/2 30/2/2
f 28/2/2 26/2/2 31/2/2
f 30/3/2 28/3/2 31/3/2
f 31/2/2 26/2/2 32/2/2
f 40/2/3 39/2/3 38/2/3
f 41/2/3 39/2/3 40/2/3
f 42/2/3 40/2/3 38/2/3
f 42/3/3 41/3/3 40/3/3
f 43/3/3 41/3/3 42/3/3
f 44/4/3 34/4/3 33/4/3
f 45/7/3 35/7/3 34/7/3
f 45/4/3 34/4/3 44/4/3
f 46/4/3 36/4/3 35/4/3
f 46/7/3 35/7/3 45/7/3
f 47/6/3 37/6/3 36/6/3
f 47/4/3 36/4/3 46/4/3
f 48/4/3 38/4/3 37/4/3
f 48/6/3 37/6/3 47/6/3
f 49/2/3 42/2/3 38/2/3
f 49/4/3 38/4/3 48/4/3
f 49/2/3 43/2/3 42/2/3
f 50/2/3 43/2/3 49/2/3
f 56/2/4 57/2/4 58/2/4
f 58/2/4 57/2/4 59/2/4
f 56/2/4 58/2/4 60/2/4
f 58/3/4 59/3/4 60/3/4
f 60/3/4 59/3/4 61/3/4
f 51/4/4 52/4/4 62/4/4
f 52/7/4 53/7/4 63/7/4
f 62/4/4 52/4/4 63/4/4
f 53/4/4 54/4/4 64/4/4
f 63/7/4 53/7/4 64/7/4
f 54/6/4 55/6/4 65/6/4
f 64/4/4 54/4/4 65/4/4
f 55/4/4 56/4/4 66/4/4
f 65/6/4 55/6/4 66/6/4
f 56/2/4 60/2/4 67/2/4
f 66/4/4 56/4/4 67/4/4
f 60/2/4 61/2/4 67/2/4
f 67/2/4 61/2/4 68/2/4
f 71/4/5 70/4/5 69/4/5
f 72/4/5 70/4/5 71/4/5
f 73/2/6 74/2/6 77/2/6
f 77/2/6 74/2/6 78/2/6
f 78/2/6 74/2/6 79/2/6
f 74/3/6 75/3/6 80/3/6
f 79/2/6 74/2/6 80/2/6
f 75/2/6 76/2/6 81/2/6
f 80/3/6 75/3/6 81/3/6
f 81/2/6 76/2/6 82/2/6
f 73/2/6 77/2/6 83/2/6
f 77/3/6 78/3/6 83/3/6
f 78/2/6 79/2/6 84/2/6
f 83/3/6 78/3/6 84/3/6
f 84/2/6 79/2/6 85/2/6
f 85/2/6 79/2/6 86/2/6
f 81/3/6 82/3/6 87/3/6
f 80/2/6 81/2/6 87/2/6
f 82/2/6 76/2/6 88/2/6
f 87/3/6 82/3/6 88/3/6
f 88/2/6 76/2/6 89/2/6
f 89/2/6 76/2/6 90/2/6
f 86/2/6 79/2/6 91/2/6
f 85/3/6 86/3/6 91/3/6
f 79/3/6 80/3/6 92/3/6
f 91/2/6 79/2/6 92/2/6
f 80/2/6 87/2/6 93/2/6
f 92/3/6 80/3/6 93/3/6
f 87/2/6 88/2/6 93/2/6
f 88/2/6 89/2/6 93/2/6
f 93/2/6 89/2/6 94/2/6
f 94/2/6 89/2/6 95/2/6
f 95/2/6 89/2/6 96/2/6
f 96/2/6 89/2/6 97/2/6
f 97/2/6 89/2/6 98/2/6
f 98/2/6 89/2/6 99/2/6
f 73/2/6 83/2/6 100/2/6
f 83/2/6 84/2/6 100/2/6
f 84/2/6 85/2/6 100/2/6
f 100/2/6 85/2/6 101/2/6
f 85/3/6 91/3/6 102/3/6
f 101/2/6 85/2/6 102/2/6
f 91/3/6 92/3/6 102/3/6
f 102/3/6 92/3/6 103/3/6
f 92/2/6 93/2/6 104/2/6
f 103/3/6 92/3/6 104/3/6
f 93/2/6 94/2/6 104/2/6
f 104/2/6 94/2/6 105/2/6
f 94/3/6 95/3/6 106/3/6
f 105/2/6 94/2/6 106/2/6
f 106/3/6 95/3/6 107/3/6
f 95/2/6 96/2/6 108/2/6
f 107/3/6 95/3/6 108/3/6
f 96/3/6 97/3/6 109/3/6
f 108/2/6 96/2/6 109/2/6
f 97/2/6 98/2/6 110/2/6
f 109/3/6 97/3/6 110/3/6
f 110/2/6 98/2/6 111/2/6
f 98/8/6 99/8/6 112/8/6
f 111/2/6 98/2/6 112/2/6
f 99/2/6 89/2/6 113/2/6
f 112/8/6 99/8/6 113/8/6
f 113/2/6 89/2/6 114/2/6
f 89/5/6 90/5/6 115/5/6
f 114/2/6 89/2/6 115/2/6
f 73/2/6 100/2/6 116/2/6
f 100/3/6 101/3/6 117/3/6
f 116/2/6 100/2/6 117/2/6
f 117/3/6 101/3/6 118/3/6
f 102/2/6 103/2/6 119/2/6
f 118/3/6 101/3/6 119/3/6
f 101/2/6 102/2/6 119/2/6
f 104/3/6 105/3/6 120/3/6
f 119/2/6 103/2/6 120/2/6
f 103/3/6 104/3/6 120/3/6
f 120/3/6 105/3/6 121/3/6
f 106/2/6 107/2/6 122/2/6
f 121/3/6 105/3/6 122/3/6
f 105/2/6 106/2/6 122/2/6
f 110/3/6 111/3/6 123/3/6
f 122/2/6 107/2/6 123/2/6
f 108/3/6 109/3/6 123/3/6
f 107/3/6 108/3/6 123/3/6
f 109/3/6 110/3/6 123/3/6
f 123/3/6 111/3/6 124/3/6
f 111/2/6 112/2/6 125/2/6
f 124/3/6 111/3/6 125/3/6
f 113/2/6 114/2/6 125/2/6
f 112/2/6 113/2/6 125/2/6
f 115/5/6 90/5/6 126/5/6
f 114/5/6 115/5/6 126/5/6
f 90/2/6 76/2/6 127/2/6
f 126/5/6 90/5/6 127/5/6
f 117/3/6 118/3/6 128/3/6
f 116/3/6 117/3/6 128/3/6
f 118/2/6 119/2/6 128/2/6
f 119/2/6 120/2/6 128/2/6
f 120/2/6 121/2/6 128/2/6
f 128/2/6 121/2/6 129/2/6
f 129/2/6 121/2/6 130/2/6
f 123/3/6 124/3/6 131/3/6
f 130/2/6 121/2/6 131/2/6
f 122/3/6 123/3/6 131/3/6
f 121/3/6 122/3/6 131/3/6
f 131/3/6 124/3/6 132/3/6
f 125/2/6 114/2/6 133/2/6
f 124/2/6 125/2/6 133/2/6
f 114/5/6 126/5/6 134/5/6
f 133/2/6 114/2/6 134/2/6
f 126/2/6 127/2/6 135/2/6
f 134/5/6 126/5/6 135/5/6
f 73/2/6 116/2/6 136/2/6
f 128/3/6 129/3/6 136/3/6
f 116/3/6 128/3/6 136/3/6
f 136/3/6 129/3/6 137/3/6
f 137/3/6 129/3/6 138/3/6
f 129/5/6 130/5/6 139/5/6
f 138/3/6 129/3/6 139/3/6
f 130/2/6 131/2/6 140/2/6
f 139/5/6 130/5/6 140/5/6
f 131/2/6 132/2/6 140/2/6
f 140/2/6 132/2/6 141/2/6
f 141/2/6 132/2/6 142/2/6
f 142/2/6 132/2/6 143/2/6
f 132/3/6 124/3/6 144/3/6
f 143/2/6 132/2/6 144/2/6
f 144/3/6 124/3/6 145/3/6
f 124/2/6 133/2/6 146/2/6
f 145/3/6 124/3/6 146/3/6
f 146/2/6 133/2/6 147/2/6
f 147/2/6 133/2/6 148/2/6
f 133/5/6 134/5/6 149/5/6
f 148/2/6 133/2/6 149/2/6
f 149/5/6 134/5/6 150/5/6
f 134/2/6 135/2/6 151/2/6
f 150/5/6 134/5/6 151/5/6
f 151/2/6 135/2/6 152/2/6
f 137/3/6 138/3/6 153/3/6
f 136/2/6 137/2/6 153/2/6
f 138/5/6 139/5/6 154/5/6
f 153/3/6 138/3/6 154/3/6
f 139/5/6 140/5/6 154/5/6
f 140/5/6 141/5/6 154/5/6
f 154/5/6 141/5/6 155/5/6
f 142/5/6 143/5/6 156/5/6
f 141/2/6 142/2/6 156/2/6
f 144/2/6 145/2/6 157/2/6
f 156/5/6 143/5/6 157/5/6
f 143/2/6 144/2/6 157/2/6
f 157/2/6 145/2/6 158/2/6
f 145/3/6 146/3/6 159/3/6
f 158/2/6 145/2/6 159/2/6
f 146/3/6 147/3/6 159/3/6
f 159/3/6 147/3/6 160/3/6
f 149/5/6 150/5/6 161/5/6
f 147/2/6 148/2/6 161/2/6
f 148/5/6 149/5/6 161/5/6
f 151/3/6 152/3/6 162/3/6
f 161/5/6 150/5/6 162/5/6
f 150/3/6 151/3/6 162/3/6
f 162/3/6 152/3/6 163/3/6
f 152/2/6 135/2/6 164/2/6
f 163/3/6 152/3/6 164/3/6
f 155/5/6 141/5/6 165/5/6
f 141/2/6 156/2/6 165/2/6
f 156/2/6 157/2/6 165/2/6
f 157/2/6 158/2/6 165/2/6
f 165/2/6 158/2/6 166/2/6
f 158/3/6 159/3/6 167/3/6
f 159/2/6 160/2/6 168/2/6
f 167/3/6 159/3/6 168/3/6
f 160/3/6 147/3/6 169/3/6
f 168/2/6 160/2/6 169/2/6
f 169/3/6 147/3/6 170/3/6
f 170/3/6 147/3/6 171/3/6
f 147/2/6 161/2/6 172/2/6
f 171/3/6 147/3/6 172/3/6
f 161/2/6 162/2/6 172/2/6
f 154/2/6 155/2/6 173/2/6
f 153/2/6 154/2/6 173/2/6
f 155/5/6 165/5/6 174/5/6
f 173/2/6 155/2/6 174/2/6
f 165/5/6 166/5/6 174/5/6
f 166/2/6 158/2/6 175/2/6
f 175/2/6 158/2/6 176/2/6
f 158/3/6 167/3/6 177/3/6
f 176/2/6 158/2/6 177/2/6
f 167/2/6 168/2/6 178/2/6
f 177/3/6 167/3/6 178/3/6
f 169/2/6 170/2/6 178/2/6
f 168/2/6 169/2/6 178/2/6
f 172/2/6 162/2/6 179/2/6
f 171/2/6 172/2/6 179/2/6
f 179/2/6 162/2/6 180/2/6
f 180/2/6 162/2/6 181/2/6
f 162/3/6 163/3/6 182/3/6
f 181/2/6 162/2/6 182/2/6
f 163/2/6 164/2/6 183/2/6
f 182/3/6 163/3/6 183/3/6
f 153/2/6 173/2/6 184/2/6
f 173/5/6 174/5/6 184/5/6
f 174/5/6 166/5/6 185/5/6
f 184/5/6 174/5/6 185/5/6
f 166/2/6 175/2/6 186/2/6
f 185/5/6 166/5/6 186/5/6
f 175/5/6 176/5/6 187/5/6
f 186/2/6 175/2/6 187/2/6
f 176/2/6 177/2/6 188/2/6
f 187/5/6 176/5/6 188/5/6
f 177/2/6 178/2/6 188/2/6
f 188/2/6 178/2/6 189/2/6
f 178/2/6 170/2/6 190/2/6
f 189/2/6 178/2/6 190/2/6
f 170/3/6 171/3/6 191/3/6
f 190/2/6 170/2/6 191/2/6
f 171/2/6 179/2/6 192/2/6
f 191/3/6 171/3/6 192/3/6
f 179/3/6 180/3/6 193/3/6
f 192/2/6 179/2/6 193/2/6
f 180/2/6 181/2/6 194/2/6
f 193/3/6 180/3/6 194/3/6
f 181/3/6 182/3/6 195/3/6
f 194/2/6 181/2/6 195/2/6
f 182/2/6 183/2/6 196/2/6
f 195/3/6 182/3/6 196/3/6
f 184/2/6 185/2/6 197/2/6
f 186/5/6 187/5/6 198/5/6
f 197/2/6 185/2/6 198/2/6
f 185/5/6 186/5/6 198/5/6
f 188/5/6 189/5/6 198/5/6
f 187/5/6 188/5/6 198/5/6
f 198/5/6 189/5/6 199/5/6
f 199/5/6 189/5/6 200/5/6
f 200/5/6 189/5/6 201/5/6
f 189/2/6 190/2/6 202/2/6
f 201/5/6 189/5/6 202/5/6
f 202/2/6 190/2/6 203/2/6
f 203/2/6 190/2/6 204/2/6
f 190/3/6 191/3/6 205/3/6
f 204/2/6 190/2/6 205/2/6
f 192/2/6 193/2/6 206/2/6
f 205/3/6 191/3/6 206/3/6
f 193/2/6 194/2/6 206/2/6
f 195/2/6 196/2/6 206/2/6
f 191/2/6 192/2/6 206/2/6
f 194/2/6 195/2/6 206/2/6
f 206/2/6 196/2/6 207/2/6
f 207/2/6 196/2/6 208/2/6
f 208/2/6 196/2/6 209/2/6
f 209/2/6 196/2/6 210/2/6
f 135/2/6 127/2/6 211/2/6
f 210/2/6 196/2/6 211/2/6
f 164/2/6 135/2/6 211/2/6
f 127/2/6 76/2/6 211/2/6
f 196/2/6 183/2/6 211/2/6
f 183/2/6 164/2/6 211/2/6
f 211/2/6 76/2/6 212/2/6
f 184/2/6 197/2/6 213/2/6
f 198/5/6 199/5/6 213/5/6
f 197/5/6 198/5/6 213/5/6
f 199/2/6 200/2/6 214/2/6
f 213/5/6 199/5/6 214/5/6
f 200/5/6 201/5/6 215/5/6
f 202/2/6 203/2/6 216/2/6
f 215/5/6 201/5/6 216/5/6
f 201/2/6 202/2/6 216/2/6
f 203/1/6 204/1/6 217/1/6
f 216/2/6 203/2/6 217/2/6
f 204/2/6 205/2/6 218/2/6
f 217/1/6 204/1/6 218/1/6
f 206/2/6 207/2/6 218/2/6
f 205/2/6 206/2/6 218/2/6
f 207/3/6 208/3/6 219/3/6
f 218/2/6 207/2/6 219/2/6
f 208/2/6 209/2/6 220/2/6
f 219/3/6 208/3/6 220/3/6
f 209/3/6 210/3/6 221/3/6
f 220/2/6 209/2/6 221/2/6
f 210/2/6 211/2/6 222/2/6
f 221/3/6 210/3/6 222/3/6
f 213/2/6 214/2/6 223/2/6
f 214/2/6 200/2/6 224/2/6
f 223/2/6 214/2/6 224/2/6
f 200/5/6 215/5/6 225/5/6
f 224/2/6 200/2/6 225/2/6
f 219/2/6 220/2/6 226/2/6
f 225/5/6 215/5/6 226/5/6
f 216/2/6 217/2/6 226/2/6
f 221/2/6 222/2/6 226/2/6
f 218/2/6 219/2/6 226/2/6
f 217/2/6 218/2/6 226/2/6
f 215/2/6 216/2/6 226/2/6
f 220/2/6 221/2/6 226/2/6
f 226/2/6 222/2/6 227/2/6
f 227/2/6 222/2/6 228/2/6
f 222/2/6 211/2/6 229/2/6
f 228/2/6 222/2/6 229/2/6
f 229/2/6 211/2/6 230/2/6
f 230/2/6 211/2/6 231/2/6
f 231/2/6 211/2/6 232/2/6
f 184/2/6 213/2/6 233/2/6
f 136/2/6 153/2/6 233/2/6
f 213/2/6 223/2/6 233/2/6
f 153/2/6 184/2/6 233/2/6
f 73/2/6 136/2/6 233/2/6
f 233/2/6 223/2/6 234/2/6
f 234/2/6 223/2/6 235/2/6
f 223/5/6 224/5/6 236/5/6
f 235/2/6 223/2/6 236/2/6
f 224/2/6 225/2/6 237/2/6
f 236/5/6 224/5/6 237/5/6
f 225/2/6 226/2/6 237/2/6
f 226/2/6 227/2/6 237/2/6
f 227/8/6 228/8/6 238/8/6
f 237/2/6 227/2/6 238/2/6
f 228/2/6 229/2/6 239/2/6
f 238/8/6 228/8/6 239/8/6
f 229/3/6 230/3/6 240/3/6
f 239/2/6 229/2/6 240/2/6
f 230/2/6 231/2/6 241/2/6
f 240/3/6 230/3/6 241/3/6
f 232/2/6 211/2/6 242/2/6
f 231/3/6 232/3/6 242/3/6
f 211/3/6 212/3/6 243/3/6
f 242/2/6 211/2/6 243/2/6
f 243/3/6 212/3/6 244/3/6
f 233/3/6 234/3/6 245/3/6
f 73/2/6 233/2/6 245/2/6
f 234/2/6 235/2/6 246/2/6
f 245/3/6 234/3/6 246/3/6
f 235/5/6 236/5/6 247/5/6
f 246/2/6 235/2/6 247/2/6
f 240/2/6 241/2/6 248/2/6
f 247/5/6 236/5/6 248/5/6
f 239/2/6 240/2/6 248/2/6
f 238/2/6 239/2/6 248/2/6
f 236/2/6 237/2/6 248/2/6
f 237/2/6 238/2/6 248/2/6
f 248/2/6 241/2/6 249/2/6
f 249/2/6 241/2/6 250/2/6
f 241/2/6 231/2/6 251/2/6
f 250/2/6 241/2/6 251/2/6
f 231/3/6 242/3/6 252/3/6
f 251/2/6 231/2/6 252/2/6
f 242/3/6 243/3/6 252/3/6
f 252/3/6 243/3/6 253/3/6
f 243/2/6 244/2/6 254/2/6
f 253/3/6 243/3/6 254/3/6
f 245/2/6 246/2/6 255/2/6
f 249/8/6 250/8/6 255/8/6
f 246/2/6 247/2/6 255/2/6
f 248/2/6 249/2/6 255/2/6
f 247/2/6 248/2/6 255/2/6
f 250/2/6 251/2/6 256/2/6
f 255/8/6 250/8/6 256/8/6
f 256/2/6 251/2/6 257/2/6
f 251/3/6 252/3/6 258/3/6
f 257/2/6 251/2/6 258/2/6
f 252/3/6 253/3/6 258/3/6
f 256/2/6 257/2/6 259/2/6
f 255/2/6 256/2/6 259/2/6
f 257/3/6 258/3/6 260/3/6
f 259/2/6 257/2/6 260/2/6
f 260/3/6 258/3/6 261/3/6
f 258/3/6 253/3/6 262/3/6
f 261/3/6 258/3/6 262/3/6
f 262/3/6 253/3/6 263/3/6
f 263/3/6 253/3/6 264/3/6
f 260/3/6 261/3/6 265/3/6
f 255/2/6 259/2/6 265/2/6
f 259/3/6 260/3/6 265/3/6
f 261/2/6 262/2/6 266/2/6
f 265/3/6 261/3/6 266/3/6
f 262/3/6 263/3/6 267/3/6
f 266/2/6 262/2/6 267/2/6
f 263/2/6 264/2/6 268/2/6
f 267/3/6 263/3/6 268/3/6
f 264/3/6 253/3/6 269/3/6
f 268/2/6 264/2/6 269/2/6
f 253/2/6 254/2/6 270/2/6
f 269/3/6 253/3/6 270/3/6
f 245/2/6 255/2/6 271/2/6
f 73/2/6 245/2/6 271/2/6
f 267/2/6 268/2/6 271/2/6
f 255/2/6 265/2/6 271/2/6
f 265/2/6 266/2/6 271/2/6
f 266/2/6 267/2/6 271/2/6
f 268/3/6 269/3/6 272/3/6
f 271/2/6 268/2/6 272/2/6
f 269/2/6 270/2/6 273/2/6
f 272/3/6 269/3/6 273/3/6
f 254/2/6 244/2/6 274/2/6
f 273/2/6 270/2/6 274/2/6
f 270/2/6 254/2/6 274/2/6
