# MagicaVoxel @ Ephtracy

# material
mtllib block_small_1.mtl
usemtl palette

# normals
vn -1 0 0
vn 1 0 0
vn 0 0 1
vn 0 0 -1
vn 0 -1 0
vn 0 1 0

# texcoords
vt 0.970703 0.5
vt 0.974609 0.5
vt 0.978516 0.5
vt 0.986328 0.5
vt 0.990234 0.5

# verts
v -20 0 5
v -20 0 -5
v -20 10 5
v -20 10 -5
v -20 14 5
v -20 14 -5
v -20 17 5
v -20 17 -5
v -20 27 5
v -20 27 -5
v -20 37 5
v -20 37 -5
v -20 40 5
v -20 40 -5
v 20 0 5
v 20 0 -5
v 20 10 5
v 20 10 -5
v 20 14 5
v 20 14 -5
v 20 17 5
v 20 17 -5
v 20 27 5
v 20 27 -5
v 20 37 5
v 20 37 -5
v 20 40 5
v 20 40 -5
v -20 0 5
v -20 10 5
v -20 14 5
v -20 17 5
v -20 27 5
v -20 37 5
v -20 40 5
v 15 39 5
v 15 40 5
v 16 39 5
v 16 40 5
v 20 0 5
v 20 10 5
v 20 14 5
v 20 17 5
v 20 27 5
v 20 37 5
v 20 40 5
v -20 0 -5
v -20 10 -5
v -20 14 -5
v -20 17 -5
v -20 27 -5
v -20 37 -5
v -20 40 -5
v 12 39 -5
v 12 40 -5
v 13 39 -5
v 13 40 -5
v 20 0 -5
v 20 10 -5
v 20 14 -5
v 20 17 -5
v 20 27 -5
v 20 37 -5
v 20 40 -5
v -20 0 5
v 20 0 5
v -20 0 -5
v 20 0 -5
v -20 40 5
v 15 40 5
v 16 40 5
v 20 40 5
v 15 40 4
v 16 40 4
v -16 40 3
v -15 40 3
v -9 40 3
v -8 40 3
v 4 40 3
v 8 40 3
v 14 40 3
v 15 40 3
v 17 40 3
v 18 40 3
v -16 40 2
v -15 40 2
v -14 40 2
v -9 40 2
v -8 40 2
v -3 40 2
v -2 40 2
v 4 40 2
v 6 40 2
v 8 40 2
v 11 40 2
v 14 40 2
v 15 40 2
v 17 40 2
v 18 40 2
v -14 40 1
v -13 40 1
v -10 40 1
v -9 40 1
v -3 40 1
v -2 40 1
v 6 40 1
v 7 40 1
v 9 40 1
v 11 40 1
v 12 40 1
v 16 40 1
v 19 40 1
v -13 40 -0
v -12 40 -0
v -10 40 -0
v -9 40 -0
v 11 40 -0
v 12 40 -0
v 14 40 -0
v 16 40 -0
v 18 40 -0
v 19 40 -0
v -13 40 -1
v -12 40 -1
v -9 40 -1
v 7 40 -1
v 9 40 -1
v 17 40 -1
v 18 40 -1
v -18 40 -2
v -17 40 -2
v -13 40 -2
v -12 40 -2
v 13 40 -2
v 14 40 -2
v 15 40 -2
v 16 40 -2
v -18 40 -3
v -17 40 -3
v 12 40 -3
v 13 40 -3
v 15 40 -3
v 16 40 -3
v 17 40 -3
v 15 40 -4
v 16 40 -4
v -20 40 -5
v 12 40 -5
v 13 40 -5
v 20 40 -5

# faces
f 3/3/1 2/3/1 1/3/1
f 4/3/1 2/3/1 3/3/1
f 5/5/1 4/5/1 3/5/1
f 6/5/1 4/5/1 5/5/1
f 7/3/1 6/3/1 5/3/1
f 8/3/1 6/3/1 7/3/1
f 9/4/1 8/4/1 7/4/1
f 10/4/1 8/4/1 9/4/1
f 11/3/1 10/3/1 9/3/1
f 12/3/1 10/3/1 11/3/1
f 13/1/1 12/1/1 11/1/1
f 14/1/1 12/1/1 13/1/1
f 15/3/2 16/3/2 17/3/2
f 17/3/2 16/3/2 18/3/2
f 17/5/2 18/5/2 19/5/2
f 19/5/2 18/5/2 20/5/2
f 19/3/2 20/3/2 21/3/2
f 21/3/2 20/3/2 22/3/2
f 21/4/2 22/4/2 23/4/2
f 23/4/2 22/4/2 24/4/2
f 23/3/2 24/3/2 25/3/2
f 25/3/2 24/3/2 26/3/2
f 25/1/2 26/1/2 27/1/2
f 27/1/2 26/1/2 28/1/2
f 36/1/3 35/1/3 34/1/3
f 37/1/3 35/1/3 36/1/3
f 38/1/3 36/1/3 34/1/3
f 38/2/3 37/2/3 36/2/3
f 39/2/3 37/2/3 38/2/3
f 40/3/3 30/3/3 29/3/3
f 41/5/3 31/5/3 30/5/3
f 41/3/3 30/3/3 40/3/3
f 42/3/3 32/3/3 31/3/3
f 42/5/3 31/5/3 41/5/3
f 43/4/3 33/4/3 32/4/3
f 43/3/3 32/3/3 42/3/3
f 44/3/3 34/3/3 33/3/3
f 44/4/3 33/4/3 43/4/3
f 45/1/3 38/1/3 34/1/3
f 45/3/3 34/3/3 44/3/3
f 45/1/3 39/1/3 38/1/3
f 46/1/3 39/1/3 45/1/3
f 52/1/4 53/1/4 54/1/4
f 54/1/4 53/1/4 55/1/4
f 52/1/4 54/1/4 56/1/4
f 54/2/4 55/2/4 56/2/4
f 56/2/4 55/2/4 57/2/4
f 47/3/4 48/3/4 58/3/4
f 48/5/4 49/5/4 59/5/4
f 58/3/4 48/3/4 59/3/4
f 49/3/4 50/3/4 60/3/4
f 59/5/4 49/5/4 60/5/4
f 50/4/4 51/4/4 61/4/4
f 60/3/4 50/3/4 61/3/4
f 51/3/4 52/3/4 62/3/4
f 61/4/4 51/4/4 62/4/4
f 52/1/4 56/1/4 63/1/4
f 62/3/4 52/3/4 63/3/4
f 56/1/4 57/1/4 63/1/4
f 63/1/4 57/1/4 64/1/4
f 67/3/5 66/3/5 65/3/5
f 68/3/5 66/3/5 67/3/5
f 69/1/6 70/1/6 73/1/6
f 70/2/6 71/2/6 73/2/6
f 71/1/6 72/1/6 74/1/6
f 73/2/6 71/2/6 74/2/6
f 69/1/6 73/1/6 75/1/6
f 73/1/6 74/1/6 75/1/6
f 75/1/6 74/1/6 76/1/6
f 76/1/6 74/1/6 77/1/6
f 77/1/6 74/1/6 78/1/6
f 78/1/6 74/1/6 79/1/6
f 79/1/6 74/1/6 80/1/6
f 80/1/6 74/1/6 81/1/6
f 81/1/6 74/1/6 82/1/6
f 74/1/6 72/1/6 83/1/6
f 82/1/6 74/1/6 83/1/6
f 83/1/6 72/1/6 84/1/6
f 69/1/6 75/1/6 85/1/6
f 75/2/6 76/2/6 85/2/6
f 76/1/6 77/1/6 86/1/6
f 85/2/6 76/2/6 86/2/6
f 86/1/6 77/1/6 87/1/6
f 77/2/6 78/2/6 88/2/6
f 87/1/6 77/1/6 88/1/6
f 78/1/6 79/1/6 89/1/6
f 88/2/6 78/2/6 89/2/6
f 89/1/6 79/1/6 90/1/6
f 90/1/6 79/1/6 91/1/6
f 79/2/6 80/2/6 92/2/6
f 91/1/6 79/1/6 92/1/6
f 92/2/6 80/2/6 93/2/6
f 80/1/6 81/1/6 94/1/6
f 93/2/6 80/2/6 94/2/6
f 94/1/6 81/1/6 95/1/6
f 81/2/6 82/2/6 96/2/6
f 95/1/6 81/1/6 96/1/6
f 82/1/6 83/1/6 97/1/6
f 96/2/6 82/2/6 97/2/6
f 83/2/6 84/2/6 98/2/6
f 97/1/6 83/1/6 98/1/6
f 84/1/6 72/1/6 99/1/6
f 98/2/6 84/2/6 99/2/6
f 86/1/6 87/1/6 100/1/6
f 87/2/6 88/2/6 100/2/6
f 85/1/6 86/1/6 100/1/6
f 100/2/6 88/2/6 101/2/6
f 101/2/6 88/2/6 102/2/6
f 88/1/6 89/1/6 103/1/6
f 102/2/6 88/2/6 103/2/6
f 89/1/6 90/1/6 103/1/6
f 90/2/6 91/2/6 104/2/6
f 103/1/6 90/1/6 104/1/6
f 92/1/6 93/1/6 105/1/6
f 104/2/6 91/2/6 105/2/6
f 91/1/6 92/1/6 105/1/6
f 94/2/6 95/2/6 106/2/6
f 105/1/6 93/1/6 106/1/6
f 93/2/6 94/2/6 106/2/6
f 106/2/6 95/2/6 107/2/6
f 107/2/6 95/2/6 108/2/6
f 97/1/6 98/1/6 109/1/6
f 108/2/6 95/2/6 109/2/6
f 96/1/6 97/1/6 109/1/6
f 98/1/6 99/1/6 109/1/6
f 95/1/6 96/1/6 109/1/6
f 109/1/6 99/1/6 110/1/6
f 110/1/6 99/1/6 111/1/6
f 99/1/6 72/1/6 112/1/6
f 111/1/6 99/1/6 112/1/6
f 100/1/6 101/1/6 113/1/6
f 101/2/6 102/2/6 113/2/6
f 113/2/6 102/2/6 114/2/6
f 104/1/6 105/1/6 115/1/6
f 114/2/6 102/2/6 115/2/6
f 106/1/6 107/1/6 115/1/6
f 105/1/6 106/1/6 115/1/6
f 102/1/6 103/1/6 115/1/6
f 103/1/6 104/1/6 115/1/6
f 115/1/6 107/1/6 116/1/6
f 109/2/6 110/2/6 117/2/6
f 108/1/6 109/1/6 117/1/6
f 110/1/6 111/1/6 118/1/6
f 117/2/6 110/2/6 118/2/6
f 118/1/6 111/1/6 119/1/6
f 111/2/6 112/2/6 120/2/6
f 119/1/6 111/1/6 120/1/6
f 120/2/6 112/2/6 121/2/6
f 112/1/6 72/1/6 122/1/6
f 121/2/6 112/2/6 122/2/6
f 113/1/6 114/1/6 123/1/6
f 100/1/6 113/1/6 123/1/6
f 115/2/6 116/2/6 124/2/6
f 123/1/6 114/1/6 124/1/6
f 114/2/6 115/2/6 124/2/6
f 116/1/6 107/1/6 125/1/6
f 124/2/6 116/2/6 125/2/6
f 107/2/6 108/2/6 126/2/6
f 125/1/6 107/1/6 126/1/6
f 108/1/6 117/1/6 127/1/6
f 126/2/6 108/2/6 127/2/6
f 118/1/6 119/1/6 127/1/6
f 117/1/6 118/1/6 127/1/6
f 119/2/6 120/2/6 128/2/6
f 120/2/6 121/2/6 128/2/6
f 121/1/6 122/1/6 129/1/6
f 128/2/6 121/2/6 129/2/6
f 69/1/6 85/1/6 130/1/6
f 100/1/6 123/1/6 130/1/6
f 85/1/6 100/1/6 130/1/6
f 130/1/6 123/1/6 131/1/6
f 123/2/6 124/2/6 132/2/6
f 131/1/6 123/1/6 132/1/6
f 124/1/6 125/1/6 133/1/6
f 132/2/6 124/2/6 133/2/6
f 125/1/6 126/1/6 133/1/6
f 126/1/6 127/1/6 133/1/6
f 127/1/6 119/1/6 134/1/6
f 133/1/6 127/1/6 134/1/6
f 119/2/6 128/2/6 135/2/6
f 134/1/6 119/1/6 135/1/6
f 135/2/6 128/2/6 136/2/6
f 136/2/6 128/2/6 137/2/6
f 69/1/6 130/1/6 138/1/6
f 130/2/6 131/2/6 138/2/6
f 131/1/6 132/1/6 139/1/6
f 138/2/6 131/2/6 139/2/6
f 133/1/6 134/1/6 139/1/6
f 132/1/6 133/1/6 139/1/6
f 139/1/6 134/1/6 140/1/6
f 135/2/6 136/2/6 141/2/6
f 140/1/6 134/1/6 141/1/6
f 134/2/6 135/2/6 141/2/6
f 136/1/6 137/1/6 142/1/6
f 141/2/6 136/2/6 142/2/6
f 137/2/6 128/2/6 143/2/6
f 142/1/6 137/1/6 143/1/6
f 128/1/6 129/1/6 144/1/6
f 143/2/6 128/2/6 144/2/6
f 141/1/6 142/1/6 145/1/6
f 142/2/6 143/2/6 145/2/6
f 143/1/6 144/1/6 146/1/6
f 145/2/6 143/2/6 146/2/6
f 69/1/6 138/1/6 147/1/6
f 139/1/6 140/1/6 147/1/6
f 138/1/6 139/1/6 147/1/6
f 140/2/6 141/2/6 148/2/6
f 147/1/6 140/1/6 148/1/6
f 145/1/6 146/1/6 149/1/6
f 148/2/6 141/2/6 149/2/6
f 141/1/6 145/1/6 149/1/6
f 122/1/6 72/1/6 150/1/6
f 149/1/6 146/1/6 150/1/6
f 146/1/6 144/1/6 150/1/6
f 129/1/6 122/1/6 150/1/6
f 144/1/6 129/1/6 150/1/6
